<svg width="40" height="40" viewBox="0 0 40 40" fill="none" xmlns="http://www.w3.org/2000/svg">
<path fill-rule="evenodd" clip-rule="evenodd" d="M20.63 0C25.49 0 26.198 0.0259999 28.246 0.12C30.374 0.218 31.828 0.556 33.1 1.05C34.435 1.55175 35.6445 2.33871 36.644 3.356C37.6613 4.35555 38.4483 5.565 38.95 6.9C39.444 8.172 39.782 9.626 39.88 11.754C39.976 13.888 40 14.568 40 20V20.16C40 25.446 39.976 26.134 39.88 28.246C39.782 30.374 39.444 31.828 38.95 33.1C38.4483 34.435 37.6613 35.6445 36.644 36.644C35.6445 37.6613 34.435 38.4483 33.1 38.95C31.828 39.444 30.374 39.782 28.246 39.88C26.112 39.976 25.432 40 20 40H19.84C14.554 40 13.866 39.976 11.754 39.88C9.626 39.782 8.172 39.444 6.9 38.95C5.565 38.4483 4.35555 37.6613 3.356 36.644C2.33871 35.6445 1.55175 34.435 1.05 33.1C0.556 31.828 0.218 30.374 0.12 28.246C0.0259999 26.198 0 25.488 0 20.63V19.37C0 14.51 0.0259999 13.802 0.12 11.754C0.218 9.626 0.556 8.172 1.05 6.9C1.55175 5.565 2.33871 4.35555 3.356 3.356C4.35555 2.33871 5.565 1.55175 6.9 1.05C8.172 0.556 9.626 0.218 11.754 0.12C13.802 0.0259999 14.512 0 19.37 0H20.63ZM20.468 3.604H19.532C14.62 3.604 13.964 3.626 11.918 3.72C9.968 3.81 8.91 4.134 8.204 4.408C7.27 4.772 6.604 5.204 5.904 5.904C5.204 6.604 4.772 7.27 4.408 8.204C4.134 8.91 3.808 9.968 3.72 11.918C3.626 13.964 3.604 14.62 3.604 19.532V20.468C3.604 25.38 3.626 26.036 3.72 28.082C3.81 30.032 4.134 31.09 4.408 31.796C4.772 32.728 5.206 33.396 5.904 34.096C6.604 34.796 7.27 35.228 8.204 35.592C8.91 35.866 9.968 36.192 11.918 36.28C14.026 36.376 14.658 36.396 20 36.396H20.16C25.354 36.396 25.994 36.376 28.08 36.28C30.032 36.19 31.09 35.866 31.796 35.592C32.728 35.228 33.396 34.796 34.096 34.096C34.796 33.396 35.228 32.73 35.592 31.796C35.866 31.09 36.192 30.032 36.28 28.082C36.376 25.972 36.396 25.342 36.396 20V19.84C36.396 14.646 36.376 14.006 36.28 11.92C36.19 9.968 35.866 8.91 35.592 8.204C35.2715 7.33514 34.7603 6.54919 34.096 5.904C33.4508 5.23972 32.6648 4.72852 31.796 4.408C31.09 4.134 30.032 3.808 28.082 3.72C26.036 3.626 25.38 3.604 20.468 3.604ZM20 9.73C21.3487 9.73 22.6841 9.99564 23.9302 10.5118C25.1762 11.0279 26.3083 11.7844 27.262 12.738C28.2156 13.6917 28.9721 14.8238 29.4882 16.0698C30.0044 17.3159 30.27 18.6513 30.27 20C30.27 21.3487 30.0044 22.6841 29.4882 23.9302C28.9721 25.1762 28.2156 26.3083 27.262 27.262C26.3083 28.2156 25.1762 28.9721 23.9302 29.4882C22.6841 30.0044 21.3487 30.27 20 30.27C17.2762 30.27 14.664 29.188 12.738 27.262C10.812 25.336 9.73 22.7238 9.73 20C9.73 17.2762 10.812 14.664 12.738 12.738C14.664 10.812 17.2762 9.73 20 9.73ZM20 13.334C18.2321 13.334 16.5365 14.0363 15.2864 15.2864C14.0363 16.5365 13.334 18.2321 13.334 20C13.334 21.7679 14.0363 23.4635 15.2864 24.7136C16.5365 25.9637 18.2321 26.666 20 26.666C21.7679 26.666 23.4635 25.9637 24.7136 24.7136C25.9637 23.4635 26.666 21.7679 26.666 20C26.666 18.2321 25.9637 16.5365 24.7136 15.2864C23.4635 14.0363 21.7679 13.334 20 13.334ZM30.676 6.924C31.3125 6.924 31.923 7.17686 32.3731 7.62694C32.8231 8.07703 33.076 8.68748 33.076 9.324C33.076 9.96052 32.8231 10.571 32.3731 11.0211C31.923 11.4711 31.3125 11.724 30.676 11.724C30.0395 11.724 29.429 11.4711 28.9789 11.0211C28.5289 10.571 28.276 9.96052 28.276 9.324C28.276 8.68748 28.5289 8.07703 28.9789 7.62694C29.429 7.17686 30.0395 6.924 30.676 6.924Z" fill="#EFF0F7"/>
</svg>
