<svg width="201" height="200" viewBox="0 0 201 200" fill="none" xmlns="http://www.w3.org/2000/svg">
<path fill-rule="evenodd" clip-rule="evenodd" d="M129.277 42.6537C146.485 38.8015 162.429 43.3719 170.998 56.4265C179.567 69.4811 177.325 90.1962 175.469 99.3399C173.613 108.484 168.904 116.859 163.06 124.129C152.205 137.634 137.536 147.968 121.137 153.547C104.738 159.126 86.9331 160.269 69.8435 157.447C60.2568 155.864 30.2689 148.109 23.7957 124.704C17.3224 101.299 13.2256 81.2952 27.2436 73.1695C41.2615 65.0438 50.9713 71.1553 57.9109 74.1607C90.3318 88.2017 112.068 46.5059 129.277 42.6537Z" fill="#F7F7FC"/>
<path fill-rule="evenodd" clip-rule="evenodd" d="M153.509 64.5768C156.27 64.3636 159.246 64.5015 161.495 66.1156C163.745 67.7297 164.767 71.2741 162.919 73.3366C165.008 72.5202 167.462 73.9049 168.508 75.8883C169.554 77.8716 169.5 80.2479 169.185 82.468C168.406 87.9662 166.164 93.2503 162.753 97.6321C162.596 98.094 162.439 98.5559 162.282 99.0179C166.315 100.057 182.06 106.172 177.806 121.247C173.552 136.322 154.972 142.059 153.07 143.864C149.755 147.008 144.696 147.223 140.129 147.078C128.9 146.722 117.705 145.295 106.746 142.823C105.814 142.613 104.634 142.485 104.097 143.274C100.209 148.99 92.08 149.501 85.1855 149.004C76.3293 148.365 67.5241 147.021 58.8802 144.991C53.9772 143.839 48.7707 142.236 45.7162 138.231C42.1554 133.563 42.5666 127.09 43.1444 121.247C40.804 122.548 36.9222 123.253 31.4992 123.361C28.3062 122.71 26.3145 121.553 25.5241 119.889C21.9096 112.281 20.6701 102.478 25.1712 94.9795C25.7119 94.0788 26.3357 93.1911 27.2161 92.6179C28.1496 92.0102 29.2875 91.8104 30.397 91.7121C34.773 91.3245 39.263 92.346 43.0406 94.5885C43.0069 82.3104 42.9732 70.0323 42.9394 57.7541C42.9375 57.051 42.9473 56.3049 43.3222 55.71C43.8644 54.8496 44.975 54.583 45.9747 54.3963C55.0687 52.6987 64.2658 51.5538 73.4984 50.97C76.5151 50.7792 80.6436 51.6188 80.6573 54.6415C80.7099 66.2172 80.7625 77.7929 80.8151 89.3687C80.8276 92.1238 81.0047 91.8934 82.2955 91.0951C81.4841 91.1791 81.6651 89.8029 82.28 89.2668C84.5756 87.2656 87.9209 87.192 90.9661 87.2231C97.7777 87.2928 104.589 87.3626 111.401 87.4323C118.001 87.4998 125.916 88.3368 128.904 94.222C128.817 92.4729 130.402 90.8223 132.153 90.8384C134.063 90.856 135.66 89.1993 136.218 87.3726C136.775 85.546 136.529 83.5833 136.278 81.69C133.199 78.7083 132.393 73.6397 134.395 69.8499C136.398 66.06 141.039 63.8695 145.237 64.7328C147.949 65.2905 150.749 64.79 153.509 64.5768ZM74.4703 121.359C74.3797 123.796 74.2838 126.266 73.5665 128.597L74.4703 121.359ZM71.6482 91.4486C72.2822 91.6341 73.0666 92.1962 72.7338 92.7668C75.4879 93.042 74.6655 92.9145 74.7894 89.6691C74.9151 86.3759 74.9256 82.7345 72.7696 80.242C70.8618 78.0364 67.7505 77.3466 64.8449 77.0985C61.4535 76.809 58.0257 76.9481 54.6688 77.5115C53.0309 77.7864 51.2569 78.2601 50.3064 79.622C49.7744 80.3842 49.5787 81.3255 49.4224 82.2418C48.8077 85.8459 48.6157 89.522 48.8517 93.1705C55.9125 89.8854 64.174 89.2614 71.6482 91.4486ZM132.926 115.645C133.099 115.47 133.36 115.428 133.603 115.394C134.574 115.261 135.544 115.127 136.514 114.994C134.287 113.988 132.938 111.599 132.534 109.189C132.131 106.779 132.525 104.315 132.923 101.904C131.498 103.489 131.601 105.881 131.787 108.004C132.196 112.651 132.754 115.819 132.926 115.645ZM114.605 138.532C114.796 137.911 115.446 137.578 115.922 137.136C116.778 136.34 117.096 135.137 117.375 134.002C118.34 130.08 119.311 126.109 119.299 122.07C119.297 121.214 119.253 120.335 119.537 119.528C119.82 118.72 120.53 117.99 121.386 117.986C122.288 117.981 122.504 116.729 122.423 115.831C122.145 112.732 121.867 109.633 121.588 106.534C121.5 105.544 121.409 104.545 121.109 103.598C119.998 100.095 115.718 97.9775 112.26 99.2192C111.837 99.3712 111.724 99.906 111.676 100.353C111.144 105.31 110.611 110.267 110.079 115.224C109.985 116.105 111.122 116.667 111.98 116.449C112.839 116.231 113.494 115.56 114.237 115.077C114.979 114.593 116.025 114.315 116.707 114.881C117.477 115.52 118.618 114.81 119.287 114.065C119.956 113.321 120.828 112.423 121.779 112.734C120.663 113.802 119.547 114.87 118.43 115.937C118.06 116.292 117.733 116.999 118.201 117.208C119.484 116.753 120.644 115.956 121.528 114.921C121.937 114.908 121.956 115.55 121.728 115.89C120.868 117.169 118.845 117.453 118.324 118.904C117.109 122.289 113.317 124.538 109.763 123.981C109.035 123.867 108.671 124.826 108.583 125.558C108.234 128.479 107.884 131.4 107.534 134.321C107.453 134.993 107.378 135.704 107.655 136.322C108.117 137.352 109.351 137.742 110.446 138.02C111.893 138.386 113.357 138.755 114.836 138.915C115.458 138.982 115.456 138.754 114.605 138.532ZM56.9588 133.176C59.0263 133.869 61.2146 134.103 63.3828 134.334C64.3023 134.431 65.2815 134.519 66.1063 134.101C67.0773 133.609 67.5946 132.544 68.0122 131.538C70.341 125.933 71.6706 119.915 71.9198 113.85C71.9552 112.988 70.852 112.608 69.9914 112.55C63.1215 112.089 56.5514 115.109 50.3296 118.058C50.0315 118.199 49.7123 118.361 49.565 118.656C49.4551 118.876 49.4609 119.134 49.469 119.38C49.5805 122.73 49.7211 126.2 51.2195 129.199C51.6241 130.009 52.1389 130.788 52.8676 131.326C53.3091 131.651 53.8144 131.877 54.3154 132.1C55.1849 132.487 56.0563 132.874 56.9588 133.176ZM101.401 120.777C102.316 115.852 102.962 110.877 103.333 105.882C103.46 104.173 103.553 102.436 103.184 100.762C102.814 99.0891 101.923 97.4624 100.466 96.5606C99.5679 96.0049 98.5169 95.7555 97.4774 95.5701C95.5805 95.2317 93.6507 95.0781 91.7241 95.1123C90.024 95.1425 88.2396 95.3497 86.8517 96.3321C86.3928 96.657 85.9759 97.0822 85.8083 97.6189C85.6406 98.1556 85.7818 98.815 86.2474 99.1303C87.4241 99.9272 87.9038 101.418 88.1243 102.822C88.3448 104.226 88.3978 105.696 89.0376 106.965C89.3675 107.62 89.8405 108.191 90.3367 108.73C93.0267 111.655 96.5354 113.818 100.357 114.909C101.028 115.1 101.883 115.515 101.741 116.199C103.854 117.532 101.366 120.966 101.401 120.777ZM95.5768 135.302C96.3548 134.829 96.8824 134.042 97.3468 133.259C99.3174 129.936 100.61 126.213 101.121 122.384C94.033 122.352 86.9872 119.678 81.663 114.999C81.4808 115.73 81.5156 116.496 81.5405 117.249C81.6959 121.952 81.4169 126.669 80.7081 131.32C80.5391 132.429 81.2016 133.538 82.1123 134.192C83.0229 134.847 84.1448 135.129 85.2462 135.341C87.7291 135.819 90.2663 136.015 92.7932 135.924C93.7542 135.889 94.7549 135.801 95.5768 135.302ZM140.304 94.7376C139.891 93.7419 139.581 92.6193 138.724 91.9656C137.867 91.3119 136.253 91.6317 136.203 92.7085C137.051 92.5523 137.699 93.5995 137.555 94.4499C137.41 95.3003 136.792 95.9764 136.301 96.6855C135.622 97.6652 135.158 98.7743 134.699 99.8742C133.606 102.491 133.181 105.383 133.474 108.204C133.647 109.864 134.102 111.57 135.225 112.806C136.348 114.041 138.272 114.659 139.752 113.886C141.023 113.221 141.657 111.757 141.948 110.353C142.239 108.949 142.291 107.479 142.842 106.156C143.858 103.713 146.362 102.237 148.84 101.311C145.115 100.805 141.745 98.2096 140.304 94.7376ZM130.004 97.3798C130.17 98.0201 130.399 98.6438 130.688 99.2389C130.861 98.4004 131.139 97.5835 131.514 96.8135C131.135 96.7702 130.753 96.7496 130.372 96.7519C130.28 96.7524 130.182 96.7558 130.104 96.8054C129.927 96.9171 129.952 97.1779 130.004 97.3798ZM85.1064 96.7207C84.8719 96.9095 84.7343 97.3157 84.9819 97.4869C85.3611 97.1073 85.7403 96.7276 86.1195 96.348C86.0411 96.2508 85.9271 96.183 85.8043 96.1605C85.6539 96.4213 85.341 96.532 85.1064 96.7207Z" fill="white"/>
<path d="M150.767 94.0007C151.577 94.0007 152.234 93.3441 152.234 92.534C152.234 91.724 151.577 91.0674 150.767 91.0674C149.957 91.0674 149.3 91.724 149.3 92.534C149.3 93.3441 149.957 94.0007 150.767 94.0007Z" fill="#FFB61D"/>
<path d="M142.367 92.5336C142.809 92.5336 143.167 92.1754 143.167 91.7336C143.167 91.2918 142.809 90.9336 142.367 90.9336C141.925 90.9336 141.567 91.2918 141.567 91.7336C141.567 92.1754 141.925 92.5336 142.367 92.5336Z" fill="#FFB61D"/>
<path fill-rule="evenodd" clip-rule="evenodd" d="M66.6138 71.4873C69.0138 71.5026 71.4138 71.5178 73.8137 71.533C73.9261 71.5338 74.0468 71.5371 74.1374 71.6036C74.3225 71.7395 74.2486 72.0578 74.058 72.1859C73.8674 72.314 73.6203 72.3085 73.3908 72.3006C71.2788 72.2273 69.1604 72.3369 67.0672 72.628C66.7489 72.6723 66.4131 72.7188 66.1153 72.5978C65.8176 72.4767 65.5899 72.1203 65.7269 71.8296C65.8701 71.5258 66.2781 71.4852 66.6138 71.4873ZM58.5883 71.2517C58.7403 71.4033 58.6675 71.6816 58.4985 71.8141C58.3296 71.9466 58.1033 71.9731 57.8896 71.9948C55.762 72.2102 53.6343 72.4256 51.5066 72.6411C51.255 72.6666 50.9948 72.6912 50.7541 72.6137C50.5133 72.5362 50.2955 72.3281 50.2898 72.0752C50.284 71.8144 50.5055 71.5929 50.7528 71.5096C51 71.4264 51.2687 71.4497 51.5288 71.4702C53.7089 71.6417 55.9101 71.5428 58.066 71.1764C58.2466 71.1457 58.4586 71.1223 58.5883 71.2517ZM58.2902 67.1675C58.4492 67.2958 58.3926 67.5708 58.2331 67.6984C58.0736 67.826 57.8565 67.8472 57.6528 67.8633L50.8199 68.4024C50.5641 68.4225 50.2991 68.4416 50.0578 68.3543C49.8165 68.267 49.6049 68.0422 49.6188 67.786C49.6328 67.5264 49.8725 67.3251 50.1251 67.2638C50.3777 67.2025 50.6422 67.2483 50.8994 67.2863C53.2185 67.629 55.5767 67.3165 57.9113 67.1043C58.0422 67.0923 58.1879 67.0849 58.2902 67.1675ZM67.833 65.8137C69.2588 65.9958 70.7042 66.0235 72.1359 65.8962C72.705 65.8455 73.3931 65.8218 73.7164 66.2929C73.3326 66.6032 72.8051 66.6472 72.3125 66.6783C70.6799 66.7812 69.0472 66.8841 67.4146 66.987C67.0422 67.0104 66.578 66.9823 66.4246 66.6421C66.287 66.3368 66.5292 65.9697 66.8404 65.8461C67.1516 65.7224 67.5009 65.7713 67.833 65.8137ZM55.516 64.0682C55.5177 64.3148 55.2087 64.4212 54.9647 64.4569L51.3765 64.9829C51.1204 65.0204 50.8558 65.0575 50.6057 64.9908C50.3556 64.924 50.1217 64.725 50.0984 64.4672C50.0697 64.1516 50.366 63.8853 50.6754 63.8165C50.9847 63.7478 51.3052 63.8197 51.6195 63.8602C52.7033 63.9998 53.7967 63.7616 54.8888 63.7241C55.1561 63.7149 55.5141 63.8008 55.516 64.0682ZM72.8295 63.2093C73.1071 63.2403 73.392 63.406 73.4662 63.6753C72.9732 64.0482 72.3215 64.1161 71.7058 64.1706C70.6518 64.264 69.5977 64.3575 68.5437 64.4509C68.1724 64.4838 67.8011 64.5167 67.4298 64.5496C67.1583 64.5737 66.876 64.5964 66.621 64.5C66.366 64.4036 66.1482 64.1507 66.1861 63.8808C66.246 63.4554 66.8042 63.345 67.2336 63.3543C68.8269 63.3885 70.4402 63.6289 72.0012 63.3082C72.2748 63.252 72.5519 63.1783 72.8295 63.2093ZM74.229 59.186C66.4192 60.239 58.412 59.6937 50.7096 61.3597C50.2528 61.4585 49.6152 61.4634 49.4971 61.0112C49.5077 60.4783 50.1968 60.286 50.7284 60.2481C58.2213 59.7138 65.7142 59.1794 73.2071 58.645C73.6467 58.6136 74.2636 58.7466 74.229 59.186Z" fill="#D9DBE9"/>
<path fill-rule="evenodd" clip-rule="evenodd" d="M46.7568 140.142C46.8384 141.086 45.5359 141.406 44.5876 141.41C39.6587 141.43 34.7348 142.344 30.1275 144.095C29.4243 144.362 28.6718 144.699 28.3295 145.369C27.8764 146.256 28.371 147.391 29.1727 147.982C29.9743 148.573 30.9976 148.753 31.9807 148.913C57.5347 153.074 83.4687 154.898 109.353 154.355L109.77 154.346C112.755 154.277 115.802 154.117 118.537 152.935C116.273 151.348 114.008 149.761 111.744 148.174C115.664 147.391 119.708 147.949 123.685 148.341C132.788 149.24 141.978 149.258 151.085 148.396C150.444 149.421 149.035 149.563 147.826 149.589C136.371 149.835 124.902 149.428 113.493 148.37C114.981 149.35 116.47 150.33 117.958 151.309C118.498 151.664 119.094 152.115 119.125 152.76C119.172 153.729 117.981 154.213 117.024 154.371C113.847 154.896 110.615 154.979 107.395 155.027C82.2489 155.394 57.0713 153.595 32.2328 149.655C31.0208 149.463 29.765 149.248 28.7544 148.552C27.7439 147.856 27.0549 146.532 27.4796 145.381C27.902 144.236 29.1871 143.698 30.3474 143.319C35.6571 141.585 41.1834 140.515 46.7568 140.142ZM80.6571 54.6415C80.7097 66.2172 80.7623 77.7929 80.8149 89.3687C80.8274 92.1238 81.3702 95.6103 84.0346 96.3118C87.7163 94.6122 91.8662 93.9408 95.896 94.3927C98.2029 94.6515 100.599 95.3489 102.16 97.0663C104.302 99.4223 104.306 102.97 104.076 106.146C103.61 112.584 102.691 118.989 101.33 125.298C102.411 125.23 103.515 125.664 104.26 126.451C103.112 126.976 101.745 126.998 100.581 126.51C101.38 130.843 97.85 135.119 93.6219 136.36C89.3939 137.602 84.8058 136.431 80.8301 134.531C80.4572 135.983 82.3997 136.836 83.8828 137.055C87.6474 137.612 91.4121 138.168 95.1768 138.725C90.5276 138.864 85.8629 138.484 81.2978 137.592C80.4572 138.783 82.3608 139.985 83.7994 140.218C87.6153 140.835 91.4312 141.453 95.2472 142.07C90.9372 142.042 86.6289 141.754 82.3533 141.21C85.0724 143.663 88.7843 144.982 92.4415 144.795C90.3785 145.473 88.0864 145.432 86.0489 144.681C88.5979 148.094 93.813 148.727 97.6215 146.817C101.43 144.908 103.917 141.002 105.133 136.919C106.35 132.836 106.468 128.521 106.683 124.266C107.081 116.412 107.842 108.569 109.217 100.826C110.144 95.6117 112.42 89.3946 117.664 88.6579C108.321 88.2274 98.9692 87.9951 89.6166 87.9615C86.7746 87.9513 83.2443 88.4162 82.2953 91.0951C81.4839 91.1791 81.6649 89.8029 82.2798 89.2668C84.5754 87.2656 87.9207 87.192 90.9659 87.2231L111.401 87.4323C118.001 87.4998 125.915 88.3368 128.903 94.222C128.817 92.4729 130.402 90.8223 132.153 90.8384C134.063 90.856 135.66 89.1993 136.217 87.3726C136.775 85.546 136.529 83.5833 136.278 81.69C133.199 78.7083 132.393 73.6397 134.395 69.8499C134.961 68.7779 135.798 66.222 140.472 64.5768C143.587 63.48 146.667 63.6006 149.711 64.9386C155.427 63.8332 159.355 64.2256 161.495 66.1156C164.705 68.9507 164.766 71.2741 162.919 73.3366C165.008 72.5202 167.462 73.9049 168.508 75.8883C169.554 77.8716 169.5 80.2479 169.185 82.468C168.405 87.9662 166.164 93.2503 162.753 97.6321L162.282 99.0179C170.535 101.145 177.211 108.44 178.601 116.848C175.857 110.664 172.143 104.114 165.744 101.919C164.3 103.433 162.815 105.014 162.137 106.994C161.459 108.973 161.825 111.475 163.545 112.667C162.465 112.918 161.385 113.168 160.304 113.418C160.664 114.056 161.024 114.694 161.383 115.331C157.302 118.434 156.833 124.302 156.857 129.428C156.882 134.554 156.789 140.335 153.07 143.864C149.755 147.008 144.695 147.223 140.128 147.078C128.9 146.722 117.705 145.295 106.746 142.823C105.814 142.613 104.634 142.485 104.097 143.274C100.209 148.99 92.0798 149.501 85.1852 149.004C76.3291 148.365 67.5239 147.021 58.88 144.991C53.977 143.839 48.7705 142.236 45.716 138.231C42.1552 133.563 42.5664 127.09 43.1442 121.247C39.6336 123.199 35.4717 123.955 31.499 123.361C35.6866 120.623 37.7174 115.386 37.7555 110.383C37.7937 105.38 36.1237 100.53 34.2657 95.8848C30.1721 98.2592 28.0183 103.264 28.3386 107.986C28.6589 112.707 31.164 117.089 34.5251 120.421C30.3817 117.806 27.6401 113.095 27.4131 108.201C27.1862 103.307 29.4802 98.3626 33.3638 95.3756C32.7433 93.2533 29.5416 92.994 27.8635 94.4338C26.1855 95.8737 25.6589 98.2108 25.2272 100.379C24.4297 104.386 23.6288 108.487 24.2083 112.531C24.7878 116.576 27.0218 120.624 30.7654 122.26C29.0159 123.521 26.6858 121.706 25.5239 119.889C20.8122 112.521 20.6699 102.478 25.171 94.9795C25.7116 94.0788 26.3355 93.1911 27.2159 92.6179C28.1493 92.0102 29.2873 91.8104 30.3968 91.7121C34.7728 91.3245 39.2627 92.346 43.0404 94.5885C43.0067 82.3104 42.973 70.0323 42.9392 57.7541C42.9373 57.051 42.9471 56.3049 43.322 55.71C43.8641 54.8496 44.9748 54.583 45.9745 54.3963C55.0685 52.6987 64.2656 51.5538 73.4982 50.97C76.5149 50.7792 80.6434 51.6188 80.6571 54.6415ZM74.4909 51.7097C64.7022 52.1705 54.9488 53.3806 45.3443 55.3258C44.9356 55.4086 44.5027 55.5053 44.2056 55.798C43.8009 56.1966 43.7696 56.8284 43.7642 57.3964C43.6495 69.6221 43.698 81.8493 43.9097 94.0737C45.0851 93.7807 46.2605 93.4876 47.4358 93.1946C46.9764 90.6861 46.515 88.1438 46.7114 85.6012C46.9079 83.0586 47.8409 80.4728 49.7601 78.7934C51.8371 76.9758 54.7357 76.4623 57.489 76.2689C60.1366 76.083 62.8003 76.1261 65.4406 76.3975C68.1358 76.6746 70.9749 77.273 72.9193 79.1598C75.7281 81.8853 75.7735 86.3008 75.6281 90.2119C75.2421 100.594 74.8561 110.977 74.4701 121.359C74.3795 123.796 74.2835 126.266 73.5663 128.597C72.849 130.928 71.4254 133.143 69.2715 134.287C67.1579 135.409 64.6289 135.378 62.251 135.107C59.9808 134.849 57.7324 134.399 55.5378 133.764C54.2048 133.377 52.8709 132.912 51.738 132.111C47.9891 129.458 47.5458 124.164 47.4548 119.572C46.0153 119.312 44.6081 120.408 44.0137 121.744C43.4194 123.081 43.4457 124.6 43.4826 126.062C43.5747 129.709 43.7168 133.539 45.5789 136.677C48.4519 141.519 54.4865 143.307 59.9962 144.463C69.7757 146.515 79.7049 147.853 89.6787 148.464C85.2275 146.197 81.2811 142.316 80.3423 137.41C80.0873 136.077 80.0599 134.713 80.0333 133.356C79.5136 106.829 78.994 80.3011 78.4743 53.7734C78.4414 52.0958 76.1669 51.6308 74.4909 51.7097ZM112.437 95.2631C112.189 95.8669 112.009 96.5369 112.174 97.1683C112.339 97.7998 112.953 98.3511 113.596 98.2439C116.48 97.7637 119.588 99.184 121.112 101.678C122.37 103.736 122.545 106.254 122.686 108.662L123.976 130.594C124.114 132.938 124.182 135.517 122.725 137.358C120.835 139.747 117.286 139.827 114.255 139.53C111.753 139.285 109.122 138.869 107.18 137.274C107.248 138.202 106.978 139.152 106.43 139.905C105.753 140.835 106.845 142.058 107.907 142.497C109.204 143.034 110.615 143.221 112.007 143.401C118.384 144.229 124.764 145.027 131.148 145.796C136.061 146.387 141.054 146.96 145.939 146.166C142.848 145.299 139.891 143.959 137.202 142.206C135.86 141.332 134.563 140.333 133.648 139.019C132.154 136.874 131.839 134.148 131.591 131.546C130.851 123.807 130.301 116.051 129.941 108.286C129.675 102.559 127.839 96.9123 124.684 92.1243C124.12 91.2681 123.431 90.3797 122.433 90.1414C118.469 89.1937 113.984 91.4917 112.437 95.2631ZM94.2581 144.826C94.5944 144.883 94.9395 144.958 95.2167 145.157C95.4939 145.356 95.6873 145.709 95.6019 146.039C95.5166 146.369 95.0807 146.587 94.8053 146.385C94.5014 146.163 94.0972 146.155 93.735 146.053C93.3729 145.951 92.9932 145.65 93.0583 145.279C93.1408 144.809 93.7877 144.746 94.2581 144.826ZM80.2959 144.965C80.7132 145.052 81.2016 145.349 81.1161 145.767C81.0407 146.135 80.5853 146.258 80.2127 146.307C79.7953 146.363 79.3496 146.415 78.9705 146.231C78.5914 146.048 78.3455 145.53 78.5942 145.19C78.762 144.961 79.0759 144.9 79.3597 144.888C79.6734 144.875 79.9886 144.901 80.2959 144.965ZM105.258 140.325C104.862 140.61 104.59 141.031 104.311 141.432C103.037 143.257 101.422 144.843 99.5752 146.085C99.6214 146.281 99.9149 146.231 100.089 146.13C102.228 144.891 103.754 142.844 105.219 140.853C105.339 140.69 105.438 140.418 105.258 140.325ZM124.383 91.0196C125.524 92.367 126.674 93.7272 127.508 95.2831C128.413 96.9698 128.922 98.839 129.331 100.709C131.621 111.17 131.01 122.045 132.494 132.65C132.762 134.564 133.116 136.518 134.111 138.174C135.278 140.114 137.214 141.459 139.186 142.57C140.781 143.469 142.446 144.258 144.197 144.79C146.983 145.637 150.329 145.696 152.464 143.717C153.664 142.606 154.294 141.02 154.787 139.461C156.899 132.78 157.131 125.515 155.45 118.712C155.492 122.781 156.021 126.84 155.9 130.907C155.779 134.974 154.944 139.162 152.553 142.454C152.08 143.106 151.531 143.732 150.815 144.103C149.873 144.591 148.753 144.582 147.699 144.453C145.859 144.229 144.059 143.672 142.413 142.82C141.162 142.172 140.005 141.358 138.884 140.505C137.581 139.514 136.301 138.447 135.388 137.088C134.483 135.741 133.979 134.168 133.579 132.596C130.658 121.114 132.746 108.728 129.28 97.399C128.463 94.729 127.044 91.8642 124.383 91.0196ZM54.6901 141.532C61.434 142.573 68.1779 143.614 74.9218 144.655C74.7509 145.101 74.1343 145.116 73.6608 145.053C67.8933 144.283 62.1258 143.512 56.3583 142.742C55.7063 142.655 55.0543 142.568 54.4023 142.48C54.0928 142.439 53.7085 142.327 53.6694 142.017C53.6143 141.581 54.2552 141.465 54.6901 141.532ZM132.922 101.904C131.498 103.489 131.601 105.881 131.787 108.004C132.196 112.651 132.604 117.298 133.012 121.944C133.031 122.162 133.055 122.391 133.182 122.568C133.391 122.857 133.794 122.908 134.15 122.933C138.999 123.275 143.847 123.616 148.696 123.958C148.333 124.531 147.516 124.539 146.84 124.487C142.275 124.135 137.692 124.021 133.116 124.145C133.037 126.492 133.383 128.853 134.132 131.079C134.456 132.043 135.706 132.249 136.723 132.29C140.601 132.447 144.48 132.604 148.358 132.761C148.536 133.163 147.91 133.414 147.47 133.409C143.484 133.363 139.497 133.317 135.511 133.271C134.965 133.265 134.767 134.038 134.973 134.544C135.511 135.866 137.223 136.151 138.647 136.24L147.56 136.798C147.763 136.811 147.806 137.131 147.657 137.27C147.508 137.41 147.282 137.413 147.078 137.409L136.643 137.188C139.341 140.399 143.126 142.681 147.225 143.568C148.108 143.759 149.045 143.885 149.903 143.602C150.93 143.263 151.687 142.391 152.28 141.486C155.424 136.689 155.215 130.518 154.893 124.791L154.529 118.301C154.656 118.126 154.918 118.065 155.109 118.166C155.183 117.848 154.769 117.659 154.448 117.6C147.355 116.298 140.076 114.993 132.978 116.265C132.751 116.172 132.753 115.819 132.926 115.645C133.098 115.47 133.36 115.428 133.603 115.394C134.573 115.261 135.544 115.127 136.514 114.994C134.287 113.988 132.937 111.599 132.534 109.189C132.131 106.779 132.525 104.315 132.922 101.904ZM98.0619 141.361C98.6936 141.479 99.4232 141.672 99.6697 142.266C98.9664 142.745 98.0427 142.696 97.1942 142.628C96.9607 142.609 96.7057 142.581 96.5416 142.414C96.2515 142.118 96.468 141.573 96.8413 141.393C97.2147 141.214 97.6546 141.286 98.0619 141.361ZM49.9468 137.026C57.2126 139.309 64.7418 140.752 72.3368 141.318C72.9259 141.362 73.7178 141.643 73.6047 142.222C65.5722 141.314 57.5889 139.971 49.7012 138.203C49.1978 138.09 48.5521 137.731 48.7395 137.251C48.9042 136.828 49.5143 136.89 49.9468 137.026ZM76.5594 140.55C76.9304 140.549 77.2886 140.676 77.6353 140.808C77.8117 140.875 78.0058 140.961 78.0742 141.137C78.2199 141.512 77.703 141.78 77.3072 141.852C77.0409 141.9 76.7745 141.949 76.5081 141.997C76.2834 142.038 76.0416 142.076 75.8348 141.98C75.4988 141.822 75.4116 141.337 75.6043 141.02C75.7969 140.703 76.1884 140.55 76.5594 140.55ZM110.774 139.748C113.988 140.36 117.28 140.394 120.551 140.427C120.804 140.43 120.872 140.828 120.692 141.005C120.511 141.182 120.228 141.19 119.975 141.185C116.921 141.125 113.864 140.803 110.819 141.043C110.487 141.069 110.143 141.101 109.832 140.984C109.52 140.867 109.255 140.553 109.314 140.226C109.365 139.944 109.64 139.746 109.921 139.691C110.203 139.637 110.492 139.695 110.774 139.748ZM118.034 89.3652C114.395 89.9085 111.338 93.1473 111.006 96.8116C110.695 100.234 109.75 103.562 109.078 106.932C106.918 117.754 107.573 128.969 105.664 139.838C106.362 138.568 106.55 137.09 106.725 135.652L111.355 97.7403C111.478 96.7316 111.604 95.7112 111.966 94.7618C112.957 92.1669 115.516 90.5369 118.034 89.3652ZM101.489 138.467C101.687 138.53 101.89 138.613 102.022 138.773C102.154 138.934 102.188 139.193 102.043 139.343C101.934 139.456 101.764 139.476 101.607 139.49C101.096 139.535 100.584 139.581 100.073 139.626C99.7967 139.65 99.5114 139.673 99.2483 139.586C98.9852 139.499 98.7479 139.271 98.7403 138.994C98.7274 138.525 99.3064 138.289 99.7749 138.258C100.353 138.221 100.937 138.292 101.489 138.467ZM112.26 99.2192C111.837 99.3712 111.724 99.906 111.676 100.353L110.079 115.224C109.984 116.105 111.122 116.667 111.98 116.449C112.839 116.231 113.494 115.56 114.236 115.077C114.979 114.593 116.025 114.315 116.707 114.881C117.477 115.52 118.618 114.81 119.287 114.065C119.956 113.321 120.827 112.423 121.779 112.734C120.663 113.802 119.546 114.87 118.43 115.937C118.06 116.292 117.733 116.999 118.201 117.208C119.484 116.753 120.643 115.956 121.528 114.921C121.936 114.908 121.956 115.55 121.727 115.89C120.868 117.169 118.845 117.453 118.324 118.904C117.108 122.289 113.317 124.538 109.763 123.981C109.034 123.867 108.671 124.826 108.583 125.558C108.233 128.479 107.884 131.4 107.534 134.321C107.453 134.993 107.378 135.704 107.655 136.322C108.116 137.352 109.351 137.742 110.446 138.02C112.502 138.541 114.592 139.065 116.712 138.99C118.832 138.915 121.024 138.157 122.366 136.515C121.994 136.032 121.166 136.651 120.625 136.372C120.095 136.099 120.377 135.189 120.945 135.01C121.514 134.831 122.114 135.116 122.642 135.392C122.974 134.745 123.315 134.052 123.247 133.328C123.179 132.604 122.514 131.888 121.805 132.051C121.339 132.158 121.149 131.35 121.525 131.055C121.901 130.759 122.44 130.855 122.905 130.965C122.931 129.218 122.957 127.47 122.983 125.723C122.988 125.366 122.989 124.992 122.82 124.678C122.651 124.364 122.25 124.144 121.929 124.298C121.491 124.509 121.111 123.764 121.404 123.376C121.697 122.988 122.25 122.938 122.736 122.921C122.774 121.369 122.673 119.814 122.437 118.279C120.608 119.196 120.288 121.614 120.103 123.652C119.749 127.56 119.038 131.435 117.98 135.213C117.743 136.06 117.476 136.925 116.922 137.608C116.368 138.29 115.456 138.754 114.605 138.532C114.796 137.911 115.446 137.578 115.921 137.136C116.778 136.34 117.096 135.137 117.375 134.002C118.34 130.08 119.311 126.109 119.299 122.07L119.297 121.799C119.291 121.03 119.283 120.25 119.536 119.528C119.82 118.72 120.53 117.99 121.386 117.986C122.288 117.981 122.503 116.729 122.423 115.831C122.145 112.732 121.866 109.633 121.588 106.534C121.499 105.544 121.409 104.545 121.108 103.598C119.998 100.095 115.718 97.9775 112.26 99.2192ZM125.877 137.015C126.301 137.129 126.713 137.565 126.536 137.967C126.368 138.352 125.84 138.373 125.422 138.333C125.218 138.314 125 138.289 124.84 138.16C124.561 137.934 124.6 137.455 124.862 137.208C125.124 136.962 125.529 136.922 125.877 137.015ZM74.9086 136.586C75.1876 136.646 75.4783 136.727 75.6789 136.93C75.8795 137.134 75.9458 137.496 75.7465 137.7C75.5836 137.867 75.3208 137.87 75.0877 137.862C74.7525 137.85 74.4173 137.838 74.0821 137.827C73.888 137.82 73.6805 137.808 73.5247 137.693C73.1916 137.445 73.3378 136.865 73.6954 136.654C74.053 136.444 74.503 136.498 74.9086 136.586ZM49.0821 133.545C50.9585 134.417 53.0201 134.798 55.0587 135.153C59.1857 135.872 63.3251 136.52 67.4745 137.095C68.0551 137.176 68.6981 137.29 69.0519 137.757C67.4451 137.867 65.8392 137.599 64.2509 137.333C59.0149 136.454 53.779 135.574 48.5431 134.695C47.9942 134.603 47.2856 134.298 47.3925 133.752C47.5192 133.105 48.4839 133.267 49.0821 133.545ZM81.6628 114.999C81.4806 115.73 81.5154 116.496 81.5403 117.249C81.6957 121.952 81.4167 126.669 80.7079 131.32C80.5389 132.429 81.2014 133.538 82.1121 134.192C83.0227 134.847 84.1446 135.129 85.2459 135.341C87.7289 135.819 90.2661 136.015 92.793 135.924C93.754 135.889 94.7547 135.801 95.5765 135.302C96.3546 134.829 96.8822 134.042 97.3466 133.259C99.3172 129.936 100.609 126.213 101.121 122.384C94.0327 122.352 86.987 119.678 81.6628 114.999ZM100.201 133.644C100.685 133.804 101.169 133.963 101.653 134.123C101.815 134.176 101.988 134.238 102.083 134.379C102.245 134.616 102.088 134.963 101.838 135.104C101.587 135.245 101.284 135.237 100.997 135.226C100.474 135.205 99.897 135.161 99.5323 134.786C99.1676 134.412 99.2927 133.603 99.8145 133.569C99.9464 133.561 100.076 133.603 100.201 133.644ZM125.569 133.714C125.857 133.76 126.161 133.813 126.382 134.002C126.604 134.191 126.695 134.566 126.491 134.774C126.408 134.857 126.294 134.9 126.183 134.939C125.755 135.088 125.279 135.207 124.856 135.045C124.432 134.882 124.143 134.322 124.409 133.955C124.654 133.618 125.157 133.648 125.569 133.714ZM50.3294 118.058C50.0312 118.199 49.7121 118.361 49.5648 118.656C49.4549 118.876 49.4606 119.134 49.4688 119.38C49.5803 122.73 49.7209 126.2 51.2193 129.199C51.6239 130.009 52.1387 130.788 52.8674 131.326C53.3089 131.651 53.8142 131.877 54.3152 132.1C55.1847 132.487 56.0561 132.874 56.9586 133.176C59.0261 133.869 61.2144 134.103 63.3826 134.334C64.3021 134.431 65.2813 134.519 66.1061 134.101C67.077 133.609 67.5944 132.544 68.012 131.538C70.3408 125.933 71.6704 119.915 71.9196 113.85C71.955 112.988 70.8518 112.608 69.9912 112.55C63.1213 112.089 56.5512 115.109 50.3294 118.058ZM72.9864 113.607C72.8101 113.839 72.7882 114.149 72.7708 114.44C72.3597 121.298 70.6527 128.077 67.7665 134.312C70.5163 132.92 72.5652 130.218 73.1626 127.194C73.368 126.155 73.41 125.091 73.4515 124.032C73.5822 120.694 73.7129 117.355 73.8436 114.017C73.8505 113.841 73.8518 113.647 73.7398 113.511C73.5546 113.286 73.1627 113.375 72.9864 113.607ZM74.1253 130.312C74.4742 130.331 74.8022 130.476 75.1413 130.56C75.4451 130.636 75.5367 131.068 75.3672 131.331C75.1977 131.594 74.8707 131.709 74.5607 131.752C74.2372 131.798 73.8892 131.78 73.611 131.609C73.3328 131.438 73.1522 131.08 73.2633 130.773C73.3822 130.445 73.7764 130.293 74.1253 130.312ZM125.769 129.405C126.095 129.473 126.375 129.675 126.644 129.872C126.79 129.979 126.945 130.099 126.992 130.273C127.053 130.496 126.906 130.735 126.704 130.846C126.502 130.957 126.259 130.965 126.029 130.947C125.702 130.921 125.364 130.84 125.118 130.624C124.871 130.408 124.746 130.028 124.899 129.738C125.056 129.444 125.443 129.338 125.769 129.405ZM48.1551 119.033C48.0659 119.193 48.0839 119.388 48.1045 119.569L48.5892 123.837C48.8522 126.153 49.1967 128.649 50.8157 130.326C51.0856 130.198 50.9333 129.792 50.7631 129.547C49.4518 127.655 49.1992 125.248 48.9865 122.956C48.8618 121.612 48.7372 120.268 48.6125 118.924C48.4872 118.792 48.2443 118.874 48.1551 119.033ZM134.482 127.776C138.93 127.886 143.378 127.996 147.825 128.106C148.506 128.123 149.189 128.139 149.862 128.241C149.722 128.727 149.082 128.818 148.576 128.814C144.116 128.772 139.641 128.495 135.205 128.959C134.825 128.999 134.416 129.038 134.087 128.845C133.758 128.653 133.61 128.124 133.913 127.892C134.07 127.772 134.284 127.771 134.482 127.776ZM122.262 126.902C122.36 126.934 122.46 126.968 122.54 127.034C122.806 127.25 122.707 127.712 122.435 127.921C122.163 128.13 121.796 128.154 121.454 128.162C121.097 128.171 120.681 128.143 120.478 127.85C120.223 127.481 120.526 126.937 120.948 126.787C121.371 126.638 121.836 126.763 122.262 126.902ZM125.514 126.004C125.929 126.048 126.332 126.194 126.68 126.424C126.946 126.6 126.893 127.041 126.651 127.249C126.409 127.456 126.064 127.485 125.745 127.474C125.423 127.462 125.087 127.413 124.826 127.223C124.565 127.034 124.41 126.667 124.55 126.376C124.709 126.045 125.148 125.964 125.514 126.004ZM80.7078 115.853C80.4656 119.344 80.357 122.844 80.3825 126.343C80.3836 126.491 80.4842 126.701 80.6105 126.624C80.8784 123.683 81.0098 120.73 81.0043 117.776C81.0031 117.122 80.9898 116.444 80.7078 115.853ZM75.9531 124.809C76.3347 124.837 76.6714 125.059 76.9824 125.282C77.0781 125.351 77.1767 125.424 77.2302 125.529C77.3412 125.747 77.2082 126.026 76.9999 126.154C76.7915 126.281 76.5336 126.291 76.2898 126.279C75.7352 126.254 75.0379 125.952 75.0999 125.4C75.1427 125.02 75.5715 124.78 75.9531 124.809ZM126.438 122.457C126.809 122.61 127.191 123.008 127 123.36C126.87 123.599 126.553 123.651 126.281 123.653C125.966 123.657 125.65 123.631 125.339 123.577C124.902 123.5 124.835 122.812 125.174 122.527C125.514 122.241 126.027 122.289 126.438 122.457ZM169.718 115.627C169.871 115.883 169.874 116.198 169.872 116.497C169.859 118.609 169.846 120.722 169.833 122.834C169.831 123.09 169.797 123.401 169.564 123.509C169.363 123.602 169.115 123.471 169.003 123.28C168.891 123.089 168.881 122.856 168.877 122.635C168.844 120.749 169.055 118.818 168.521 117.009C168.362 116.472 168.172 115.8 168.587 115.424C168.911 115.129 169.493 115.251 169.718 115.627ZM115.41 115.382C113.809 116.376 112.124 117.397 110.245 117.532C109.903 117.557 109.749 117.966 109.681 118.302C109.378 119.814 109.21 121.353 109.182 122.895C109.18 122.99 109.181 123.091 109.235 123.168C109.322 123.29 109.499 123.295 109.648 123.288C111.115 123.211 112.601 123.058 113.963 122.509C115.325 121.96 116.563 120.965 117.118 119.606C117.673 118.246 117.406 116.513 116.273 115.579C116.029 115.378 115.678 115.216 115.41 115.382ZM103.151 121.328C103.666 121.463 104.18 121.598 104.695 121.733C104.887 121.784 105.101 121.851 105.193 122.027C105.301 122.235 105.175 122.502 104.979 122.63C104.783 122.759 104.539 122.783 104.306 122.804C103.936 122.837 103.556 122.868 103.201 122.759C102.846 122.65 102.519 122.364 102.479 121.995C102.438 121.626 102.792 121.234 103.151 121.328ZM31.7875 93.1784C33.7129 93.9582 35.1621 95.645 36.061 97.5178C36.9599 99.3906 37.3692 101.456 37.7259 103.502C38.3163 106.889 38.7864 110.346 38.3559 113.757C37.9254 117.169 36.4995 120.57 33.8561 122.768C35.7817 122.871 38.0808 122.795 39.1261 121.175C39.5953 120.447 40.605 120.126 41.4084 120.447C40.9033 120.011 41.2845 119.198 41.6594 118.645C43.1953 116.381 44.2492 113.779 44.6258 111.07C45.356 105.816 43.5201 100.491 40.796 95.9393C39.0287 92.9862 34.9061 91.7227 31.7875 93.1784ZM77.4401 120.395C77.8374 120.551 77.7448 121.208 77.3735 121.419C77.0022 121.63 76.5394 121.535 76.1256 121.43C75.9326 121.38 75.7277 121.323 75.5967 121.173C75.2908 120.823 75.6418 120.231 76.0948 120.127C76.5478 120.022 77.0075 120.225 77.4401 120.395ZM91.7239 95.1123C90.0238 95.1425 88.2393 95.3497 86.8515 96.3321C86.3926 96.657 85.9757 97.0822 85.8081 97.6189C85.6404 98.1556 85.7816 98.815 86.2472 99.1303C87.4239 99.9272 87.9035 101.418 88.1241 102.822C88.3446 104.226 88.3976 105.696 89.0373 106.965C89.3673 107.62 89.8403 108.191 90.3364 108.73C93.0265 111.655 96.5352 113.818 100.356 114.909C101.028 115.1 101.883 115.515 101.741 116.199C96.2434 115.047 91.2303 111.729 88.0203 107.12C87.0448 110.115 85.1207 112.794 82.5935 114.676C87.5233 118.871 93.9026 121.328 100.373 121.525C100.666 121.534 100.997 121.523 101.195 121.307C101.325 121.165 101.365 120.966 101.4 120.777C102.316 115.852 102.962 110.877 103.333 105.882C103.46 104.173 103.553 102.436 103.183 100.762C102.814 99.0891 101.923 97.4624 100.466 96.5606C99.5677 96.0049 98.5167 95.7555 97.4772 95.5701C95.5803 95.2317 93.6504 95.0781 91.7239 95.1123ZM125.502 119.079C125.948 119.079 126.511 119.21 126.589 119.648C126.667 120.086 126.168 120.411 125.728 120.468C125.405 120.509 125.055 120.47 124.799 120.269C124.544 120.069 124.425 119.676 124.602 119.404C124.784 119.125 125.169 119.079 125.502 119.079ZM158.437 110.297C157.619 113.467 157.141 116.712 156.665 119.951C156.642 120.112 156.628 120.302 156.75 120.411C158.025 118.826 159.195 117.157 160.249 115.418C160.353 115.246 160.455 115.022 160.339 114.858C160.074 114.489 159.81 114.12 159.546 113.75C159.35 113.476 159.148 113.115 159.32 112.826C159.461 112.59 159.774 112.541 160.047 112.515L162.288 112.309C162.264 112.17 162.179 112.051 162.097 111.936C161.497 111.101 160.843 110.223 159.882 109.857C159.35 109.654 158.58 109.746 158.437 110.297ZM54.6686 77.5115C53.0307 77.7864 51.2566 78.2601 50.3062 79.622C49.7742 80.3842 49.5785 81.3255 49.4222 82.2418C48.8075 85.8459 48.6155 89.522 48.8514 93.1705C55.9123 89.8854 64.1738 89.2614 71.648 91.4486C72.282 91.6341 73.0664 92.1962 72.7336 92.7668C67.1269 90.693 60.8819 90.3838 55.0978 91.8934C53.2261 92.3819 51.4073 93.0537 49.5463 93.5814C46.7807 94.3656 43.9243 94.8292 41.0526 94.96C46.2827 102.061 46.9595 112.229 42.7167 119.961C45.3564 119.461 47.8368 118.352 50.2708 117.215C53.9049 115.516 57.5233 113.725 61.3836 112.635C65.2439 111.545 69.4176 111.189 73.2467 112.384C73.6946 112.524 73.9415 111.877 73.9594 111.408L74.7892 89.6691C74.9149 86.3759 74.9254 82.7345 72.7694 80.242C70.8616 78.0364 67.7503 77.3466 64.8447 77.0985C61.4533 76.809 58.0254 76.9481 54.6686 77.5115ZM105.255 117.86C105.362 117.93 105.473 118.019 105.498 118.144C105.549 118.399 105.239 118.561 104.989 118.632C104.626 118.735 104.252 118.838 103.877 118.799C103.501 118.759 103.12 118.544 102.996 118.187C102.873 117.83 103.121 117.362 103.498 117.355C104.117 117.344 104.737 117.522 105.255 117.86ZM158.514 104.181C157.148 104.947 155.516 105.227 153.973 104.96C154.171 105.51 155.036 105.702 155.04 106.287C155.043 106.643 154.708 106.893 154.517 107.194C154.37 107.425 154.307 107.698 154.248 107.966C153.698 110.483 153.383 113.052 153.307 115.627C153.294 116.071 153.404 116.657 153.845 116.705C154.759 116.805 155.62 117.318 156.144 118.074C156.573 115.373 157.002 112.673 157.431 109.973C157.531 109.346 157.615 108.646 157.248 108.129C156.742 107.417 157.182 106.442 157.625 105.69L158.514 104.181ZM77.1892 115.853C77.6554 115.946 78.1858 116.348 78.0092 116.79C77.9003 117.062 77.5718 117.171 77.2793 117.187C76.9868 117.203 76.6825 117.159 76.4086 117.263C76.0863 117.385 75.7068 117.1 75.6675 116.757C75.6281 116.415 75.8662 116.082 76.1763 115.932C76.4865 115.782 76.8511 115.785 77.1892 115.853ZM125.497 115.436C125.791 115.476 126.101 115.541 126.315 115.747C126.528 115.952 126.587 116.344 126.36 116.534C126.284 116.597 126.189 116.63 126.097 116.662C125.693 116.799 125.261 116.934 124.847 116.832C124.432 116.73 124.072 116.29 124.216 115.888C124.381 115.425 125.009 115.368 125.497 115.436ZM152.25 109.884C151.938 109.959 151.711 110.219 151.506 110.465L150.27 111.945C150.029 112.234 150.454 112.637 150.829 112.669C151.205 112.7 151.644 112.612 151.911 112.877C152.191 113.156 152.075 113.641 151.846 113.962C151.617 114.284 151.292 114.546 151.153 114.916C150.946 115.469 151.289 116.161 151.854 116.331C152.161 116.424 152.591 116.282 152.594 115.961C152.61 114.088 152.72 112.215 152.922 110.352C152.957 110.034 152.561 109.809 152.25 109.884ZM89.5389 110.815C89.7756 110.972 89.9288 111.224 90.0867 111.46C91.4426 113.491 93.7103 114.886 96.1338 115.181C96.6944 115.249 97.3558 115.317 97.6369 115.807C97.1088 116.33 96.2484 116.266 95.5245 116.098C92.9587 115.501 90.6076 114.019 88.9629 111.961C88.7006 111.633 88.4611 111.133 88.7536 110.832C88.9515 110.628 89.3022 110.658 89.5389 110.815ZM150.917 101.844C149.105 102.289 147.295 102.917 145.827 104.068C144.358 105.219 143.266 106.968 143.278 108.834C143.292 111.2 142.13 113.545 140.237 114.966L143.423 115.341C143.796 115.384 144.215 115.416 144.507 115.18C144.934 114.835 144.824 114.171 144.716 113.633C144.609 113.094 144.632 112.382 145.145 112.184C145.781 111.938 146.308 112.821 146.212 113.496C146.115 114.172 145.723 114.822 145.846 115.493C147.355 115.707 148.868 115.887 150.385 116.034C150.083 115.786 150.05 115.317 150.203 114.957C150.356 114.598 150.652 114.323 150.94 114.06C151.247 113.779 150.805 113.284 150.391 113.24C149.978 113.195 149.491 113.295 149.2 112.998C148.837 112.629 149.109 112.011 149.419 111.596C150.019 110.792 150.763 109.822 150.376 108.896C149.434 106.637 149.642 103.932 150.917 101.844ZM81.4283 95.6712C81.1758 101.855 81.2104 108.051 81.5319 114.231C83.8941 112.949 85.6201 110.694 86.6904 108.229C87.3435 106.725 87.7806 105.067 87.5195 103.449C87.3249 102.241 86.7534 101.126 86.0889 100.1C84.91 98.2791 83.3713 96.6355 81.4283 95.6712ZM136.202 92.7085C137.051 92.5523 137.699 93.5995 137.555 94.4499C137.41 95.3003 136.792 95.9764 136.301 96.6855C135.622 97.6652 135.158 98.7743 134.699 99.8742C133.606 102.491 133.181 105.383 133.474 108.204C133.647 109.864 134.102 111.57 135.224 112.806C136.347 114.041 138.272 114.659 139.752 113.886C141.022 113.221 141.656 111.757 141.948 110.353C142.239 108.949 142.291 107.479 142.842 106.156C143.857 103.713 146.362 102.237 148.84 101.311C145.115 100.805 141.745 98.2096 140.304 94.7376C139.891 93.7419 139.581 92.6193 138.724 91.9656C137.867 91.3119 136.253 91.6317 136.202 92.7085ZM104.717 112.629C104.979 112.679 105.236 112.755 105.483 112.856C105.891 113.022 106.329 113.48 106.067 113.834C105.924 114.027 105.648 114.05 105.408 114.056C104.97 114.067 104.497 114.069 104.139 113.816C103.781 113.562 103.657 112.95 104.018 112.701C104.216 112.565 104.481 112.583 104.717 112.629ZM124.465 111.585C124.819 111.615 125.172 111.664 125.522 111.732C125.695 111.766 125.881 111.813 125.99 111.952C126.154 112.162 126.051 112.491 125.842 112.658C125.634 112.825 125.357 112.872 125.093 112.913C124.69 112.976 124.261 113.036 123.889 112.868C123.517 112.7 123.264 112.209 123.491 111.87C123.689 111.575 124.11 111.555 124.465 111.585ZM23.0864 109.677C22.7861 109.674 22.6821 110.075 22.6913 110.375C22.7174 111.238 22.8921 112.096 23.2052 112.901C23.2924 112.99 23.3936 112.804 23.3814 112.68L23.0864 109.677ZM80.8039 111.899C80.6165 112.001 80.5451 112.27 80.6576 112.451L80.6621 112.458L80.6581 112.462C80.653 112.468 80.6476 112.475 80.642 112.484C80.5665 112.598 80.6723 112.779 80.8087 112.77C80.901 112.489 80.8993 112.178 80.8039 111.899ZM76.8999 110.678C77.3064 110.768 77.7476 111.105 77.6465 111.509C77.5794 111.776 77.2979 111.933 77.0287 111.993C76.7594 112.053 76.4748 112.049 76.2177 112.149C75.8907 112.276 75.4969 112.012 75.4295 111.668C75.3622 111.324 75.5731 110.964 75.8774 110.79C76.1818 110.615 76.5574 110.602 76.8999 110.678ZM79.2521 53.7178C79.2757 72.3331 79.7034 90.948 80.5347 109.545L80.6221 111.468L80.6353 110.849C80.6593 109.404 80.6381 107.958 80.6169 106.512C80.3688 89.5673 80.1206 72.6227 79.8724 55.678C79.862 54.9686 79.8062 54.161 79.2521 53.7178ZM105.878 107.956C106.106 108.024 106.335 108.127 106.483 108.314C106.63 108.5 106.673 108.787 106.526 108.975C106.385 109.156 106.128 109.191 105.899 109.211L104.919 109.298C104.759 109.312 104.587 109.324 104.448 109.244C104.335 109.179 104.261 109.06 104.227 108.935C104.124 108.558 104.379 108.148 104.732 107.98C105.085 107.812 105.503 107.844 105.878 107.956ZM26.9883 93.3838C25.9701 94.3843 25.4404 95.7674 24.9511 97.1084C23.5875 100.845 22.2917 104.812 22.9645 108.732C23.1726 108.77 23.2717 108.487 23.2872 108.276C23.5638 104.494 24.3196 100.747 25.5308 97.1533C25.993 95.7821 26.5488 94.3895 27.5755 93.3698C27.5614 93.1215 27.1657 93.2095 26.9883 93.3838ZM152.17 101.558C151.992 101.602 151.877 101.77 151.784 101.927C150.908 103.414 150.495 105.17 150.618 106.891C150.668 107.602 150.897 108.421 151.561 108.68C152.101 108.162 152.64 107.644 153.18 107.125C153.266 107.043 153.353 106.958 153.401 106.849C153.519 106.576 153.35 106.272 153.194 106.019C152.425 104.767 151.848 103.181 152.488 101.859C152.568 101.695 152.347 101.515 152.17 101.558ZM163.384 99.9541C163.298 99.999 163.231 100.073 163.167 100.146C161.574 101.948 160.035 103.798 158.554 105.693C158.244 106.088 157.922 106.535 157.952 107.036C157.979 107.482 158.292 107.87 158.672 108.105C159.052 108.339 159.495 108.446 159.93 108.549C160.046 108.577 160.172 108.604 160.281 108.556C160.382 108.511 160.446 108.412 160.504 108.319C161.411 106.857 162.33 105.365 162.759 103.699C162.85 103.343 163.158 103.095 163.405 102.823C163.888 102.289 164.172 101.577 164.188 100.856C164.194 100.612 164.165 100.355 164.024 100.156C163.883 99.9566 163.6 99.8412 163.384 99.9541ZM124.582 107.087C124.802 107.141 125.044 107.224 125.142 107.428C125.316 107.787 124.909 108.161 124.528 108.279C124.233 108.37 123.904 108.402 123.621 108.278C123.338 108.154 123.123 107.842 123.187 107.54C123.301 107.003 124.05 106.955 124.582 107.087ZM77.2633 106.303C77.3669 106.396 77.463 106.505 77.5023 106.639C77.5814 106.907 77.3938 107.203 77.1366 107.314C76.8793 107.424 76.5789 107.382 76.3197 107.276C76.0467 107.165 75.7808 106.952 75.7461 106.659C75.7064 106.324 76.0097 106.016 76.3434 105.968C76.677 105.919 77.0122 106.078 77.2633 106.303ZM106.79 103.36C107.056 103.468 107.084 103.871 106.901 104.092C106.717 104.313 106.411 104.387 106.124 104.411C105.838 104.435 105.541 104.425 105.274 104.53C104.863 104.691 104.415 104.194 104.513 103.763C104.611 103.332 105.074 103.065 105.515 103.044C105.956 103.024 106.381 103.193 106.79 103.36ZM124.126 102.712C124.503 102.731 124.877 102.83 125.214 103.001C125.36 103.075 125.511 103.178 125.552 103.336C125.638 103.663 125.228 103.887 124.897 103.951C124.603 104.007 124.305 104.041 124.006 104.051C123.636 104.064 123.191 103.993 123.044 103.654C122.93 103.391 123.069 103.068 123.303 102.902C123.537 102.735 123.839 102.698 124.126 102.712ZM148.462 78.603C146.259 78.9583 144.047 79.2529 141.829 79.4861C140.222 79.6551 138.708 80.5668 137.807 81.9084C137.622 82.184 137.495 82.6238 137.781 82.7928C138.589 81.8599 139.687 81.1812 140.883 80.8745C141.31 80.7648 141.778 80.705 142.181 80.8846C142.584 81.0642 142.872 81.5586 142.69 81.9604C142.41 82.5774 141.517 82.4048 140.84 82.3636C138.96 82.2489 137.333 84.4015 137.957 86.1795C138.395 84.4822 140.818 83.7453 142.176 84.8533C143.534 85.9614 143.368 88.395 141.916 89.376C141.436 89.7002 140.819 89.9262 140.6 90.4624C140.412 90.9221 140.593 91.4413 140.773 91.9041C141.056 92.6304 141.339 93.3567 141.622 94.0831C142.215 95.6058 142.844 97.1842 144.044 98.2934C144.967 99.1463 146.164 99.6538 147.385 99.9514C151.787 101.024 156.742 99.3168 159.548 95.7603C159.773 95.4753 160.287 95.7457 160.327 96.1065C160.367 96.4673 160.12 96.7919 159.876 97.0606C158.619 98.4438 157.035 99.5277 155.291 100.198C154.466 100.515 153.486 100.858 153.233 101.704C153.023 102.405 153.464 103.179 154.099 103.544C154.733 103.908 155.506 103.939 156.233 103.86C157.683 103.701 159.087 103.133 160.239 102.239C160.589 101.968 160.927 101.651 161.082 101.237C161.229 100.845 161.196 100.411 161.16 99.9939L161.129 99.6353C160.993 98.0794 160.817 96.5053 160.183 95.0826C159.877 94.3982 159.469 93.7569 159.245 93.042C158.968 92.1604 158.984 91.2146 158.798 90.3095C158.612 89.4044 158.14 88.4642 157.279 88.1305C157.506 87.5522 158.074 87.1883 158.442 86.6872C158.81 86.1862 158.864 85.3109 158.285 85.0846C158.008 84.9763 157.693 85.0696 157.429 85.2066C156.317 85.784 155.717 87.197 156.074 88.3979C156.307 89.1816 155.069 89.7074 154.402 89.234C153.736 88.7606 153.572 87.8592 153.44 87.0522C152.931 83.9241 151.908 80.5517 149.236 78.8466C149.003 78.6975 148.735 78.5589 148.462 78.603ZM77.0298 100.792C77.381 100.906 77.7313 101.222 77.6582 101.584C77.5891 101.926 77.1953 102.086 76.8512 102.145C76.3631 102.229 75.7267 102.133 75.5895 101.657C75.4589 101.204 75.9329 100.77 76.4014 100.721C76.6126 100.699 76.8278 100.727 77.0298 100.792ZM133.36 94.2768C133.032 94.5872 132.873 95.0302 132.724 95.4561C132.388 96.417 132.048 97.406 132.087 98.4231C132.112 99.0778 131.732 99.6676 131.461 100.264C131.19 100.861 131.042 101.625 131.468 102.123C132.483 101.27 132.726 99.8326 132.95 98.5252C133.217 96.962 133.579 95.3416 134.59 94.1199C134.237 93.8399 133.687 93.9664 133.36 94.2768ZM106.608 98.6332C106.869 98.7172 107.165 98.8852 107.168 99.1597C107.172 99.4935 106.761 99.6471 106.433 99.7072C106.268 99.7373 106.104 99.7674 105.939 99.7976C105.519 99.8743 105.07 99.9479 104.68 99.7752C104.29 99.6026 104.03 99.0761 104.285 98.7339C104.449 98.5125 104.752 98.4522 105.028 98.4352C105.561 98.4022 106.1 98.4698 106.608 98.6332ZM68.4565 93.8116C68.9155 94.0311 69.4291 94.4638 69.2591 94.9434C64.5297 93.9123 59.4771 94.4222 55.0491 96.3776C53.0567 97.2575 51.1864 98.4208 49.1243 99.1222C48.4189 99.3622 47.6487 99.5463 46.936 99.3287C46.2233 99.1111 45.629 98.3549 45.8374 97.6395C46.0331 96.968 46.7809 96.6488 47.4434 96.4245C50.7089 95.3191 54.0312 94.3816 57.3928 93.617C61.0606 92.7827 65.0631 92.1885 68.4565 93.8116ZM136.364 93.7549C136.027 93.7536 135.743 94.0013 135.521 94.2557C134.982 94.8729 134.599 95.6131 134.315 96.3811C133.961 97.3353 133.751 98.3429 133.696 99.3591C134.674 97.6768 135.72 96.0338 136.829 94.4355C137.022 94.1582 136.702 93.7563 136.364 93.7549ZM130.372 96.7519C130.279 96.7524 130.182 96.7558 130.103 96.8054C129.927 96.9171 129.952 97.1779 130.004 97.3798C130.17 98.0201 130.399 98.6438 130.688 99.2389C130.861 98.4004 131.139 97.5835 131.513 96.8135C131.135 96.7702 130.753 96.7496 130.372 96.7519ZM56.2632 94.5901C53.4638 95.4505 50.6644 96.3109 47.865 97.1712C47.5306 97.274 47.1426 97.4327 47.0714 97.7752C47.299 98.1073 47.7325 98.2483 48.1346 98.2288C48.5367 98.2093 48.9185 98.055 49.2912 97.9027C52.1312 96.7423 54.9712 95.5819 57.8112 94.4215C57.304 94.2798 56.7666 94.4354 56.2632 94.5901ZM85.8041 96.1605C85.6537 96.4213 85.3408 96.532 85.1062 96.7207C84.8717 96.9095 84.7341 97.3157 84.9817 97.4869C85.3609 97.1073 85.7401 96.7276 86.1193 96.348C86.0409 96.2508 85.9269 96.183 85.8041 96.1605ZM115.341 95.9585C117.375 96.1704 119.429 96.2786 121.467 96.1031C121.994 96.0576 122.625 96.0364 122.938 96.4632C122.543 96.8655 121.922 96.9142 121.358 96.9383C119.243 97.0289 117.127 97.1195 115.011 97.2101C114.599 97.2278 114.076 97.1753 113.942 96.7845C113.837 96.4768 114.076 96.1374 114.377 96.014C114.678 95.8906 115.017 95.9248 115.341 95.9585ZM146.799 93.7352C147.292 94.3341 147.472 95.1766 147.267 95.9243C147.216 96.1088 147.142 96.2898 147.024 96.4405C146.715 96.8356 146.143 96.9524 145.655 96.8354C145.167 96.7185 144.749 96.4077 144.376 96.0713C143.992 95.7245 143.632 95.3294 143.448 94.846C143.264 94.3627 143.285 93.7746 143.612 93.3736C143.881 93.0432 144.317 92.8847 144.742 92.8536C145.515 92.797 146.307 93.1363 146.799 93.7352ZM78.2038 95.1275C78.3982 95.2846 78.3656 95.6109 78.1996 95.7978C78.0336 95.9846 77.7804 96.0644 77.5379 96.1248C77.2515 96.1962 76.9504 96.2521 76.6632 96.1839C76.3761 96.1156 76.1068 95.8928 76.0715 95.5998C76.0203 95.1747 76.4652 94.8421 76.8882 94.7754C77.3499 94.7026 77.8401 94.8338 78.2038 95.1275ZM144.546 93.8762C144.331 94.1553 144.473 94.6589 144.822 94.7066C145.226 94.7618 145.54 95.1859 145.475 95.588C145.424 95.9038 145.809 96.1676 146.114 96.0728C146.42 95.978 146.596 95.6356 146.589 95.3159C146.583 94.9961 146.43 94.698 146.257 94.429C146.066 94.1325 145.833 93.8445 145.511 93.7001C145.19 93.5557 144.762 93.5971 144.546 93.8762ZM143.472 65.2107C140.538 65.748 137.632 67.0293 135.74 69.3346C133.848 71.6399 133.194 75.0899 134.673 77.6796C135.196 78.5947 135.994 79.3928 136.997 79.7149C138.001 80.037 139.214 79.7999 139.884 78.986C140.643 78.0628 142.176 78.9482 143.319 78.5978C144.9 78.1131 146.543 77.8318 148.195 77.7631C148.587 77.7468 148.991 77.7444 149.357 77.8861C149.754 78.04 150.067 78.3485 150.369 78.6489C151.415 79.6908 152.482 80.7629 153.101 82.103C154.083 84.2282 153.84 86.8195 155.08 88.805C155.225 87.5599 155.37 86.3149 155.515 85.0698C155.569 84.6079 155.628 84.1281 155.878 83.7357C156.128 83.3433 156.627 83.0679 157.064 83.2267C157.835 83.5069 158.638 83.8077 159.192 84.4134C159.745 85.0191 159.95 86.0286 159.418 86.6532C158.904 87.2567 159.487 88.129 159.76 88.8733C160.233 90.1629 159.677 91.6365 160.049 92.9589C160.357 94.0543 161.247 94.8721 162.097 95.6284C162.346 95.8496 162.636 96.0853 162.967 96.0551C163.244 96.0299 163.467 95.823 163.657 95.6188C164.787 94.401 165.561 92.8567 165.86 91.2225C165.981 90.5632 165.751 89.6026 165.087 89.6926C165.269 88.1108 166.723 87.0331 167.577 85.6892C168.498 84.2398 168.715 82.4575 168.758 80.7407C168.8 79.0152 168.631 77.14 167.481 75.8528C166.1 74.3063 163.416 74.1908 161.906 75.6128C161.53 75.9673 161.034 76.4357 160.586 76.1792C160.937 75.5482 161.289 74.9172 161.641 74.2861C162.214 73.2578 162.799 72.192 162.916 71.0205C163.146 68.7089 161.386 66.5202 159.21 65.7073C157.034 64.8944 154.577 65.2315 152.395 66.0265C151.847 66.2258 151.201 66.6538 151.349 67.2168C151.435 67.5429 151.766 67.7397 151.935 68.0313C152.041 68.213 152.03 68.2712 151.911 68.4183C151.839 68.5071 151.709 68.7643 151.592 68.7142C150.354 67.2809 149.016 65.7804 147.202 65.2384C145.999 64.8791 144.706 64.9846 143.472 65.2107ZM129.417 94.77C129.262 94.6783 128.966 94.6182 128.995 94.7956C129.078 95.2297 129.469 95.5526 129.891 95.6853C130.313 95.8181 130.765 95.7957 131.207 95.772C131.38 95.7627 131.564 95.7494 131.701 95.6444C131.816 95.5564 131.88 95.4181 131.938 95.2856C132.039 95.0584 132.139 94.8313 132.24 94.6042C131.419 94.0703 130.259 95.269 129.417 94.77ZM105.723 93.2871C106.068 93.3129 106.411 93.3732 106.744 93.4665C107.033 93.5474 107.364 93.7165 107.379 94.016C107.397 94.4103 106.884 94.5713 106.491 94.6053C106.091 94.6399 105.691 94.6745 105.29 94.709C104.999 94.7342 104.669 94.7471 104.455 94.5478C104.167 94.2803 104.283 93.7611 104.595 93.5218C104.906 93.2825 105.331 93.2577 105.723 93.2871ZM115.083 93.2013C116.997 93.4576 118.937 93.5193 120.864 93.3854C121.09 93.3697 121.336 93.3565 121.522 93.4857C121.709 93.6149 121.755 93.948 121.552 94.0483C121.49 94.0787 121.419 94.0819 121.35 94.0845C119.021 94.1724 116.692 94.2603 114.363 94.3482C114.15 94.3562 113.917 94.3574 113.753 94.2214C113.461 93.9779 113.629 93.4573 113.964 93.2775C114.299 93.0977 114.706 93.1509 115.083 93.2013ZM133.669 91.3042C132.925 91.3442 132.169 91.4132 131.482 91.7016C130.795 91.99 130.179 92.5325 129.974 93.2485C129.933 93.3938 129.917 93.5727 130.029 93.6747C130.115 93.7542 130.246 93.7554 130.364 93.7507C131.599 93.7022 132.829 93.5182 134.024 93.2032C134.619 93.0466 135.335 92.6688 135.255 92.0595C135.213 91.7386 134.936 91.4879 134.63 91.3817C134.324 91.2754 133.992 91.2868 133.669 91.3042ZM47.8783 91.2145C47.7597 91.8421 47.7307 92.4865 47.7924 93.1221C47.9461 93.288 48.1483 92.9642 48.1353 92.7384C48.1056 92.2231 48.0193 91.7111 47.8783 91.2145ZM87.6549 90.4469C91.9368 90.6405 96.2187 90.834 100.501 91.0275C100.9 91.0456 101.431 91.1987 101.408 91.598C100.897 91.9262 100.237 91.8583 99.6341 91.788C95.8172 91.3433 91.9557 91.2818 88.1265 91.6049C87.796 91.6328 87.4449 91.6598 87.1499 91.5081C86.8548 91.3565 86.6646 90.9522 86.8561 90.6813C87.0237 90.4444 87.365 90.4338 87.6549 90.4469ZM77.2719 89.9979C77.4603 90.0263 77.6565 90.0756 77.7933 90.2081C78.1062 90.5113 77.913 91.0876 77.5367 91.3072C77.1605 91.5268 76.6945 91.496 76.2604 91.4585C75.7841 91.4173 75.6295 90.7028 75.9424 90.3413C76.2553 89.9798 76.7991 89.9265 77.2719 89.9979ZM92.3318 88.4141C99.3103 88.7761 106.289 89.1381 113.267 89.5001C113.641 89.5195 114.136 89.6633 114.116 90.0371C112.965 90.2444 111.774 90.2213 110.632 89.9697L111.646 90.8421C111.162 91.1469 110.647 91.4616 110.076 91.4743C109.505 91.487 108.883 91.0658 108.899 90.4946C109.188 90.3611 109.477 90.2277 109.766 90.0943C104.129 89.6113 98.4652 89.4351 92.8087 89.5667C92.4823 89.5743 92.134 89.5771 91.8583 89.4022C91.5827 89.2272 91.4432 88.8018 91.6714 88.5682C91.8346 88.4013 92.0987 88.402 92.3318 88.4141ZM137.519 89.3473C137.267 89.361 137.054 89.528 136.859 89.6875C136.628 89.8766 136.397 90.0656 136.166 90.2547C135.924 90.4527 135.662 90.6891 135.647 91.0015C135.64 91.171 135.769 91.3723 135.934 91.3341C135.98 91.3234 136.02 91.2955 136.059 91.2682C136.609 90.88 137.16 90.4918 137.71 90.1037C137.822 90.0245 137.942 89.9348 137.979 89.8023C138.045 89.5594 137.77 89.3335 137.519 89.3473ZM146.079 87.314C146.101 87.88 145.82 88.4105 145.72 88.9681C145.62 89.5257 145.81 90.2358 146.362 90.3663C146.524 90.4048 146.571 90.6375 146.48 90.7771C146.388 90.9167 146.214 90.9769 146.05 91.0067C145.539 91.0995 144.934 90.9356 144.7 90.4726C144.582 90.2408 144.573 89.9712 144.566 89.7114C144.549 89.0159 144.531 88.3204 144.513 87.6248C144.501 87.1493 144.554 86.5638 144.989 86.3718C145.507 86.1432 146.057 86.7479 146.079 87.314ZM138.488 90.4692C138.387 90.5161 138.319 90.6248 138.32 90.7358L138.295 90.7423C138.351 90.8663 138.552 90.8857 138.63 90.7746C138.709 90.6636 138.624 90.4806 138.488 90.4692ZM137.525 86.8339C137.294 86.8398 137.036 86.8818 136.9 87.068C136.754 87.2672 136.813 87.5595 136.963 87.7557C137.113 87.952 137.334 88.0782 137.54 88.2142C138.408 88.7869 139.101 89.6212 139.505 90.5797C139.78 90.218 140.055 89.8564 140.33 89.4947C140.535 89.2246 140.751 88.9156 140.708 88.5792C140.677 88.3362 140.514 88.1318 140.34 87.9585C139.606 87.2239 138.564 86.8075 137.525 86.8339ZM49.0184 81.2384C48.6957 81.2648 48.5284 81.6272 48.4269 81.9347C48.2723 82.4032 48.1177 82.8718 47.9631 83.3403C47.7942 83.8522 47.6241 84.3699 47.5778 84.9069C47.5471 85.2628 47.5714 85.6209 47.5957 85.9773C47.6716 87.0904 47.7476 88.2034 47.8235 89.3164C47.8382 89.5316 48.0019 89.8287 48.1799 89.7069C48.106 86.8638 48.3884 84.0117 49.0184 81.2384ZM140.303 85.331C140.01 85.4426 139.699 85.6387 139.657 85.9494C139.614 86.26 140.072 86.5483 140.249 86.2898C140.475 85.9599 141.041 86.1321 141.228 86.4858C141.416 86.8394 141.361 87.2647 141.358 87.6648C141.355 88.0649 141.447 88.5239 141.796 88.7199C141.854 88.1847 141.913 87.6495 141.971 87.1143C142.043 86.4536 142.039 85.6341 141.458 85.3108C141.111 85.1172 140.675 85.1894 140.303 85.331ZM149.711 85.0287C150.186 85.0499 150.694 85.2156 150.954 85.6143C151.214 86.0129 151.076 86.6659 150.618 86.7943C149.964 86.9775 149.352 86.0559 148.713 86.2847C148.313 86.4278 148.066 86.9901 147.649 86.9095C147.391 86.8594 147.247 86.5497 147.299 86.2914C147.35 86.0331 147.543 85.8263 147.75 85.6628C148.3 85.227 149.01 84.9974 149.711 85.0287ZM76.895 84.5579C77.3534 84.632 77.8021 85.1338 77.5605 85.5303C77.4927 85.6417 77.3824 85.7208 77.267 85.7815C76.9812 85.9319 76.6285 85.9831 76.3334 85.8518C76.0382 85.7206 75.8306 85.3801 75.9105 85.0671C76.0109 84.6738 76.4943 84.4932 76.895 84.5579ZM150.456 81.9483C150.772 82.2482 151.017 82.813 150.664 83.0675C150.291 83.3368 149.843 82.8823 149.486 82.592C149.086 82.2677 148.545 82.1245 148.038 82.2089C147.713 82.2629 147.407 82.4039 147.082 82.4512C146.756 82.4986 146.377 82.4238 146.199 82.1468C146.013 81.8563 146.132 81.445 146.388 81.2139C146.644 80.9829 147.001 80.8983 147.344 80.8669C148.472 80.7638 149.636 81.1683 150.456 81.9483ZM76.8792 81.029C77.1607 81.1941 77.3123 81.5831 77.1556 81.8694C76.9487 82.2475 76.4061 82.2424 75.9877 82.1385C75.837 82.101 75.6785 82.0516 75.5787 81.9326C75.3406 81.6486 75.6076 81.2031 75.9399 81.0392C76.2326 80.8948 76.5977 80.864 76.8792 81.029Z" fill="#A0A3BD"/>
<path fill-rule="evenodd" clip-rule="evenodd" d="M39.1008 119.064C39.1393 119.171 39.1748 119.29 39.1308 119.395C39.0519 119.583 38.795 119.59 38.5914 119.588C37.159 119.577 35.8274 120.807 35.7257 122.236C35.7149 122.387 35.5075 122.456 35.3733 122.386C35.2391 122.316 35.17 122.165 35.1236 122.021C34.8619 121.209 35.0305 120.299 35.4477 119.555C35.8648 118.811 36.5103 118.217 37.2116 117.732C37.4836 117.543 37.8224 117.362 38.1301 117.484C38.3335 117.564 38.4664 117.758 38.5771 117.947C38.7857 118.302 38.9612 118.676 39.1008 119.064ZM38.2688 118.901C38.1428 118.516 37.6311 118.377 37.2489 118.513C36.8667 118.65 36.5881 118.975 36.328 119.286C36.0815 119.581 35.8235 119.903 35.7944 120.287C36.4535 119.589 37.3293 119.098 38.2688 118.901Z" fill="#FFB61D"/>
</svg>
