<svg width="24" height="24" viewBox="0 0 24 24" fill="none" xmlns="http://www.w3.org/2000/svg">
<path d="M11.9927 1.49978L12 1.49989L12.0073 1.49978C13.8962 1.47227 15.719 2.19447 17.0766 3.50821C18.4332 4.82105 19.2146 6.6177 19.25 8.50511C19.2522 9.42012 19.0714 10.3263 18.7181 11.1704C18.3643 12.0157 17.8448 12.7815 17.1901 13.4226L17.04 13.5697V13.7798V20.8998V20.9118L17.0406 20.9238C17.0535 21.1938 16.9975 21.4626 16.8777 21.7048C16.7593 21.9442 16.5826 22.1498 16.364 22.3028C16.1501 22.4363 15.902 22.5049 15.6498 22.4999L15.6498 22.4999L15.642 22.4998C15.3877 22.4988 15.1369 22.4407 14.908 22.3298L14.908 22.3298L14.9035 22.3277L12.2135 21.0577L11.9988 20.9564L11.7846 21.0586L9.14463 22.3186L9.13663 22.3224L9.12877 22.3265C8.903 22.4443 8.65096 22.5026 8.39641 22.4961C8.14805 22.4897 7.90526 22.4217 7.68981 22.2983C7.47353 22.1445 7.29885 21.9391 7.18162 21.7008C7.06165 21.4568 7.00581 21.1863 7.01938 20.9148L7.02 20.9023V20.8898V13.7998V13.5865L6.866 13.4389C6.19936 12.7999 5.6684 12.033 5.30483 11.1842C4.94195 10.3369 4.75328 9.42534 4.75001 8.50369C4.78578 6.6168 5.56715 4.82073 6.92342 3.50821C8.28095 2.19447 10.1038 1.47227 11.9927 1.49978ZM18.2498 8.51215L18.2502 8.49983L18.2498 8.48752C18.2099 6.86471 17.5289 5.32377 16.3558 4.20171C15.1851 3.08193 13.6195 2.47027 12 2.49974C10.3805 2.47027 8.81486 3.08193 7.64418 4.20171C6.47112 5.32377 5.79013 6.86471 5.75015 8.48752L5.74985 8.49983L5.75015 8.51215C5.79013 10.135 6.47112 11.6759 7.64418 12.798C8.81486 13.9177 10.3805 14.5294 12 14.4999C13.6195 14.5294 15.1851 13.9177 16.3558 12.798C17.5289 11.6759 18.2099 10.135 18.2498 8.51215ZM15.2811 21.4494L16 21.7994V20.9998V15.1798V14.3736L15.2778 14.7319C14.2593 15.2372 13.1377 15.5001 12.0007 15.4998C10.8669 15.4973 9.74832 15.2376 8.72923 14.7405L8.01 14.3896V15.1898V20.9024C7.99814 20.9951 8.00913 21.0899 8.04298 21.1784L8.23827 21.6892L8.72954 21.4491L11.379 20.1542C11.5752 20.0703 11.7865 20.0271 12 20.0271C12.2136 20.0271 12.425 20.0704 12.6214 20.1544L15.2811 21.4494Z" fill="#BE185D" stroke="white"/>
</svg>
