<svg width="24" height="24" viewBox="0 0 24 24" fill="none" xmlns="http://www.w3.org/2000/svg">
<path d="M18.1764 6.17645L17.75 6.60289V6.25H17.3971L17.8236 5.82355C17.8973 5.74985 18.0125 5.73348 18.1047 5.77447C18.1569 5.79983 18.2002 5.84306 18.2255 5.8953C18.2665 5.98746 18.2502 6.10274 18.1764 6.17645ZM14 5.75H16.4829L15.9829 6.25H14C13.8661 6.25 13.75 6.13386 13.75 6C13.75 5.86614 13.8661 5.75 14 5.75ZM10 18.25H7.51711L8.01711 17.75H10C10.1339 17.75 10.25 17.8661 10.25 18C10.25 18.1339 10.1339 18.25 10 18.25ZM16.4829 18.25H14C13.8661 18.25 13.75 18.1339 13.75 18C13.75 17.8661 13.8661 17.75 14 17.75H15.9829L16.4829 18.25ZM17.8236 18.1764L17.3971 17.75H17.75V17.3971L18.1764 17.8236C18.2502 17.8973 18.2665 18.0125 18.2255 18.1047C18.1845 18.1891 18.0969 18.25 18 18.25C17.9355 18.25 17.8748 18.2277 17.8236 18.1764ZM18.25 16.4829L17.75 15.9829V14C17.75 13.8661 17.8661 13.75 18 13.75C18.1339 13.75 18.25 13.8661 18.25 14V16.4829ZM16.75 7.60289L13.06 11.2929L12.7071 10.94L16.3971 7.25H16.75V7.60289ZM12 11.6471L12.3529 12L12 12.3529L11.6471 12L12 11.6471ZM16.3971 16.75L12.7071 13.06L13.06 12.7071L16.75 16.3971V16.75H16.3971ZM11.2929 13.06L7.60289 16.75H7.25V16.3971L10.94 12.7071L11.2929 13.06ZM11.2929 10.94L10.94 11.2929L7.25 7.60289V7.25H7.60289L11.2929 10.94ZM5.82355 6.17645C5.74984 6.10274 5.73348 5.98745 5.77447 5.89529C5.79983 5.84306 5.84306 5.79983 5.89529 5.77447C5.98745 5.73348 6.10274 5.74984 6.17645 5.82355L6.60289 6.25H6.25V6.60289L5.82355 6.17645ZM8.01711 6.25L7.51711 5.75H10C10.1339 5.75 10.25 5.86614 10.25 6C10.25 6.13386 10.1339 6.25 10 6.25H8.01711ZM5.75 10V7.51711L6.25 8.01711V10C6.25 10.1339 6.13386 10.25 6 10.25C5.86614 10.25 5.75 10.1339 5.75 10ZM5.77447 18.1047C5.73348 18.0125 5.74985 17.8973 5.82355 17.8236L6.25 17.3971V17.75H6.60289L6.17645 18.1764C6.12516 18.2277 6.06455 18.25 6 18.25C5.90308 18.25 5.81545 18.1891 5.77447 18.1047ZM6.25 15.9829L5.75 16.4829V14C5.75 13.8661 5.86614 13.75 6 13.75C6.13386 13.75 6.25 13.8661 6.25 14V15.9829ZM18.25 7.51711V10C18.25 10.1339 18.1339 10.25 18 10.25C17.8661 10.25 17.75 10.1339 17.75 10V8.01711L18.25 7.51711ZM15 22.25H9C6.3424 22.25 4.56492 21.6803 3.4423 20.5577C2.31968 19.4351 1.75 17.6576 1.75 15V9C1.75 6.3424 2.31968 4.56492 3.4423 3.4423C4.56492 2.31968 6.3424 1.75 9 1.75H15C17.6576 1.75 19.4351 2.31968 20.5577 3.4423C21.6803 4.56492 22.25 6.3424 22.25 9V15C22.25 17.6576 21.6803 19.4351 20.5577 20.5577C19.4351 21.6803 17.6576 22.25 15 22.25ZM9 2.25C6.65972 2.25 4.92432 2.66107 3.7927 3.7927C2.66107 4.92432 2.25 6.65972 2.25 9V15C2.25 17.3403 2.66107 19.0757 3.7927 20.2073C4.92432 21.3389 6.65972 21.75 9 21.75H15C17.3403 21.75 19.0757 21.3389 20.2073 20.2073C21.3389 19.0757 21.75 17.3403 21.75 15V9C21.75 6.65972 21.3389 4.92432 20.2073 3.7927C19.0757 2.66107 17.3403 2.25 15 2.25H9Z" fill="#0EA5E9" stroke="white"/>
</svg>
