<svg width="308" height="270" viewBox="0 0 308 270" fill="none" xmlns="http://www.w3.org/2000/svg">
<path d="M-96 0H-92V4H-96V0Z" fill="#E5E7EB"/>
<path d="M-76 0H-72V4H-76V0Z" fill="#E5E7EB"/>
<path d="M-56 0H-52V4H-56V0Z" fill="#E5E7EB"/>
<path d="M-36 0H-32V4H-36V0Z" fill="#E5E7EB"/>
<path d="M-16 0H-12V4H-16V0Z" fill="#E5E7EB"/>
<path d="M4 0H8V4H4V0Z" fill="#E5E7EB"/>
<path d="M24 0H28V4H24V0Z" fill="#E5E7EB"/>
<path d="M44 0H48V4H44V0Z" fill="#E5E7EB"/>
<path d="M64 0H68V4H64V0Z" fill="#E5E7EB"/>
<path d="M84 0H88V4H84V0Z" fill="#E5E7EB"/>
<path d="M104 0H108V4H104V0Z" fill="#E5E7EB"/>
<path d="M124 0H128V4H124V0Z" fill="#E5E7EB"/>
<path d="M144 0H148V4H144V0Z" fill="#E5E7EB"/>
<path d="M164 0H168V4H164V0Z" fill="#E5E7EB"/>
<path d="M184 0H188V4H184V0Z" fill="#E5E7EB"/>
<path d="M204 0H208V4H204V0Z" fill="#E5E7EB"/>
<path d="M224 0H228V4H224V0Z" fill="#E5E7EB"/>
<path d="M244 0H248V4H244V0Z" fill="#E5E7EB"/>
<path d="M264 0H268V4H264V0Z" fill="#E5E7EB"/>
<path d="M284 0H288V4H284V0Z" fill="#E5E7EB"/>
<path d="M304 0H308V4H304V0Z" fill="#E5E7EB"/>
<path d="M-96 20H-92V24H-96V20Z" fill="#E5E7EB"/>
<path d="M-76 20H-72V24H-76V20Z" fill="#E5E7EB"/>
<path d="M-56 20H-52V24H-56V20Z" fill="#E5E7EB"/>
<path d="M-36 20H-32V24H-36V20Z" fill="#E5E7EB"/>
<path d="M-16 20H-12V24H-16V20Z" fill="#E5E7EB"/>
<path d="M4 20H8V24H4V20Z" fill="#E5E7EB"/>
<path d="M24 20H28V24H24V20Z" fill="#E5E7EB"/>
<path d="M44 20H48V24H44V20Z" fill="#E5E7EB"/>
<path d="M64 20H68V24H64V20Z" fill="#E5E7EB"/>
<path d="M84 20H88V24H84V20Z" fill="#E5E7EB"/>
<path d="M104 20H108V24H104V20Z" fill="#E5E7EB"/>
<path d="M124 20H128V24H124V20Z" fill="#E5E7EB"/>
<path d="M144 20H148V24H144V20Z" fill="#E5E7EB"/>
<path d="M164 20H168V24H164V20Z" fill="#E5E7EB"/>
<path d="M184 20H188V24H184V20Z" fill="#E5E7EB"/>
<path d="M204 20H208V24H204V20Z" fill="#E5E7EB"/>
<path d="M224 20H228V24H224V20Z" fill="#E5E7EB"/>
<path d="M244 20H248V24H244V20Z" fill="#E5E7EB"/>
<path d="M264 20H268V24H264V20Z" fill="#E5E7EB"/>
<path d="M284 20H288V24H284V20Z" fill="#E5E7EB"/>
<path d="M304 20H308V24H304V20Z" fill="#E5E7EB"/>
<path d="M-96 40H-92V44H-96V40Z" fill="#E5E7EB"/>
<path d="M-76 40H-72V44H-76V40Z" fill="#E5E7EB"/>
<path d="M-56 40H-52V44H-56V40Z" fill="#E5E7EB"/>
<path d="M-36 40H-32V44H-36V40Z" fill="#E5E7EB"/>
<path d="M-16 40H-12V44H-16V40Z" fill="#E5E7EB"/>
<path d="M4 40H8V44H4V40Z" fill="#E5E7EB"/>
<path d="M24 40H28V44H24V40Z" fill="#E5E7EB"/>
<path d="M44 40H48V44H44V40Z" fill="#E5E7EB"/>
<path d="M64 40H68V44H64V40Z" fill="#E5E7EB"/>
<path d="M84 40H88V44H84V40Z" fill="#E5E7EB"/>
<path d="M104 40H108V44H104V40Z" fill="#E5E7EB"/>
<path d="M124 40H128V44H124V40Z" fill="#E5E7EB"/>
<path d="M144 40H148V44H144V40Z" fill="#E5E7EB"/>
<path d="M164 40H168V44H164V40Z" fill="#E5E7EB"/>
<path d="M184 40H188V44H184V40Z" fill="#E5E7EB"/>
<path d="M204 40H208V44H204V40Z" fill="#E5E7EB"/>
<path d="M224 40H228V44H224V40Z" fill="#E5E7EB"/>
<path d="M244 40H248V44H244V40Z" fill="#E5E7EB"/>
<path d="M264 40H268V44H264V40Z" fill="#E5E7EB"/>
<path d="M284 40H288V44H284V40Z" fill="#E5E7EB"/>
<path d="M304 40H308V44H304V40Z" fill="#E5E7EB"/>
<path d="M-96 60H-92V64H-96V60Z" fill="#E5E7EB"/>
<path d="M-76 60H-72V64H-76V60Z" fill="#E5E7EB"/>
<path d="M-56 60H-52V64H-56V60Z" fill="#E5E7EB"/>
<path d="M-36 60H-32V64H-36V60Z" fill="#E5E7EB"/>
<path d="M-16 60H-12V64H-16V60Z" fill="#E5E7EB"/>
<path d="M4 60H8V64H4V60Z" fill="#E5E7EB"/>
<path d="M24 60H28V64H24V60Z" fill="#E5E7EB"/>
<path d="M44 60H48V64H44V60Z" fill="#E5E7EB"/>
<path d="M64 60H68V64H64V60Z" fill="#E5E7EB"/>
<path d="M84 60H88V64H84V60Z" fill="#E5E7EB"/>
<path d="M104 60H108V64H104V60Z" fill="#E5E7EB"/>
<path d="M124 60H128V64H124V60Z" fill="#E5E7EB"/>
<path d="M144 60H148V64H144V60Z" fill="#E5E7EB"/>
<path d="M164 60H168V64H164V60Z" fill="#E5E7EB"/>
<path d="M184 60H188V64H184V60Z" fill="#E5E7EB"/>
<path d="M204 60H208V64H204V60Z" fill="#E5E7EB"/>
<path d="M224 60H228V64H224V60Z" fill="#E5E7EB"/>
<path d="M244 60H248V64H244V60Z" fill="#E5E7EB"/>
<path d="M264 60H268V64H264V60Z" fill="#E5E7EB"/>
<path d="M284 60H288V64H284V60Z" fill="#E5E7EB"/>
<path d="M304 60H308V64H304V60Z" fill="#E5E7EB"/>
<path d="M-96 80H-92V84H-96V80Z" fill="#E5E7EB"/>
<path d="M-76 80H-72V84H-76V80Z" fill="#E5E7EB"/>
<path d="M-56 80H-52V84H-56V80Z" fill="#E5E7EB"/>
<path d="M-36 80H-32V84H-36V80Z" fill="#E5E7EB"/>
<path d="M-16 80H-12V84H-16V80Z" fill="#E5E7EB"/>
<path d="M4 80H8V84H4V80Z" fill="#E5E7EB"/>
<path d="M24 80H28V84H24V80Z" fill="#E5E7EB"/>
<path d="M44 80H48V84H44V80Z" fill="#E5E7EB"/>
<path d="M64 80H68V84H64V80Z" fill="#E5E7EB"/>
<path d="M84 80H88V84H84V80Z" fill="#E5E7EB"/>
<path d="M104 80H108V84H104V80Z" fill="#E5E7EB"/>
<path d="M124 80H128V84H124V80Z" fill="#E5E7EB"/>
<path d="M144 80H148V84H144V80Z" fill="#E5E7EB"/>
<path d="M164 80H168V84H164V80Z" fill="#E5E7EB"/>
<path d="M184 80H188V84H184V80Z" fill="#E5E7EB"/>
<path d="M204 80H208V84H204V80Z" fill="#E5E7EB"/>
<path d="M224 80H228V84H224V80Z" fill="#E5E7EB"/>
<path d="M244 80H248V84H244V80Z" fill="#E5E7EB"/>
<path d="M264 80H268V84H264V80Z" fill="#E5E7EB"/>
<path d="M284 80H288V84H284V80Z" fill="#E5E7EB"/>
<path d="M304 80H308V84H304V80Z" fill="#E5E7EB"/>
<path d="M-96 100H-92V104H-96V100Z" fill="#E5E7EB"/>
<path d="M-76 100H-72V104H-76V100Z" fill="#E5E7EB"/>
<path d="M-56 100H-52V104H-56V100Z" fill="#E5E7EB"/>
<path d="M-36 100H-32V104H-36V100Z" fill="#E5E7EB"/>
<path d="M-16 100H-12V104H-16V100Z" fill="#E5E7EB"/>
<path d="M4 100H8V104H4V100Z" fill="#E5E7EB"/>
<path d="M24 100H28V104H24V100Z" fill="#E5E7EB"/>
<path d="M44 100H48V104H44V100Z" fill="#E5E7EB"/>
<path d="M64 100H68V104H64V100Z" fill="#E5E7EB"/>
<path d="M84 100H88V104H84V100Z" fill="#E5E7EB"/>
<path d="M104 100H108V104H104V100Z" fill="#E5E7EB"/>
<path d="M124 100H128V104H124V100Z" fill="#E5E7EB"/>
<path d="M144 100H148V104H144V100Z" fill="#E5E7EB"/>
<path d="M164 100H168V104H164V100Z" fill="#E5E7EB"/>
<path d="M184 100H188V104H184V100Z" fill="#E5E7EB"/>
<path d="M204 100H208V104H204V100Z" fill="#E5E7EB"/>
<path d="M224 100H228V104H224V100Z" fill="#E5E7EB"/>
<path d="M244 100H248V104H244V100Z" fill="#E5E7EB"/>
<path d="M264 100H268V104H264V100Z" fill="#E5E7EB"/>
<path d="M284 100H288V104H284V100Z" fill="#E5E7EB"/>
<path d="M304 100H308V104H304V100Z" fill="#E5E7EB"/>
<path d="M-96 120H-92V124H-96V120Z" fill="#E5E7EB"/>
<path d="M-76 120H-72V124H-76V120Z" fill="#E5E7EB"/>
<path d="M-56 120H-52V124H-56V120Z" fill="#E5E7EB"/>
<path d="M-36 120H-32V124H-36V120Z" fill="#E5E7EB"/>
<path d="M-16 120H-12V124H-16V120Z" fill="#E5E7EB"/>
<path d="M4 120H8V124H4V120Z" fill="#E5E7EB"/>
<path d="M24 120H28V124H24V120Z" fill="#E5E7EB"/>
<path d="M44 120H48V124H44V120Z" fill="#E5E7EB"/>
<path d="M64 120H68V124H64V120Z" fill="#E5E7EB"/>
<path d="M84 120H88V124H84V120Z" fill="#E5E7EB"/>
<path d="M104 120H108V124H104V120Z" fill="#E5E7EB"/>
<path d="M124 120H128V124H124V120Z" fill="#E5E7EB"/>
<path d="M144 120H148V124H144V120Z" fill="#E5E7EB"/>
<path d="M164 120H168V124H164V120Z" fill="#E5E7EB"/>
<path d="M184 120H188V124H184V120Z" fill="#E5E7EB"/>
<path d="M204 120H208V124H204V120Z" fill="#E5E7EB"/>
<path d="M224 120H228V124H224V120Z" fill="#E5E7EB"/>
<path d="M244 120H248V124H244V120Z" fill="#E5E7EB"/>
<path d="M264 120H268V124H264V120Z" fill="#E5E7EB"/>
<path d="M284 120H288V124H284V120Z" fill="#E5E7EB"/>
<path d="M304 120H308V124H304V120Z" fill="#E5E7EB"/>
<path d="M-96 140H-92V144H-96V140Z" fill="#E5E7EB"/>
<path d="M-76 140H-72V144H-76V140Z" fill="#E5E7EB"/>
<path d="M-56 140H-52V144H-56V140Z" fill="#E5E7EB"/>
<path d="M-36 140H-32V144H-36V140Z" fill="#E5E7EB"/>
<path d="M-16 140H-12V144H-16V140Z" fill="#E5E7EB"/>
<path d="M4 140H8V144H4V140Z" fill="#E5E7EB"/>
<path d="M24 140H28V144H24V140Z" fill="#E5E7EB"/>
<path d="M44 140H48V144H44V140Z" fill="#E5E7EB"/>
<path d="M64 140H68V144H64V140Z" fill="#E5E7EB"/>
<path d="M84 140H88V144H84V140Z" fill="#E5E7EB"/>
<path d="M104 140H108V144H104V140Z" fill="#E5E7EB"/>
<path d="M124 140H128V144H124V140Z" fill="#E5E7EB"/>
<path d="M144 140H148V144H144V140Z" fill="#E5E7EB"/>
<path d="M164 140H168V144H164V140Z" fill="#E5E7EB"/>
<path d="M184 140H188V144H184V140Z" fill="#E5E7EB"/>
<path d="M204 140H208V144H204V140Z" fill="#E5E7EB"/>
<path d="M224 140H228V144H224V140Z" fill="#E5E7EB"/>
<path d="M244 140H248V144H244V140Z" fill="#E5E7EB"/>
<path d="M264 140H268V144H264V140Z" fill="#E5E7EB"/>
<path d="M284 140H288V144H284V140Z" fill="#E5E7EB"/>
<path d="M304 140H308V144H304V140Z" fill="#E5E7EB"/>
<path d="M-96 160H-92V164H-96V160Z" fill="#E5E7EB"/>
<path d="M-76 160H-72V164H-76V160Z" fill="#E5E7EB"/>
<path d="M-56 160H-52V164H-56V160Z" fill="#E5E7EB"/>
<path d="M-36 160H-32V164H-36V160Z" fill="#E5E7EB"/>
<path d="M-16 160H-12V164H-16V160Z" fill="#E5E7EB"/>
<path d="M4 160H8V164H4V160Z" fill="#E5E7EB"/>
<path d="M24 160H28V164H24V160Z" fill="#E5E7EB"/>
<path d="M44 160H48V164H44V160Z" fill="#E5E7EB"/>
<path d="M64 160H68V164H64V160Z" fill="#E5E7EB"/>
<path d="M84 160H88V164H84V160Z" fill="#E5E7EB"/>
<path d="M104 160H108V164H104V160Z" fill="#E5E7EB"/>
<path d="M124 160H128V164H124V160Z" fill="#E5E7EB"/>
<path d="M144 160H148V164H144V160Z" fill="#E5E7EB"/>
<path d="M164 160H168V164H164V160Z" fill="#E5E7EB"/>
<path d="M184 160H188V164H184V160Z" fill="#E5E7EB"/>
<path d="M204 160H208V164H204V160Z" fill="#E5E7EB"/>
<path d="M224 160H228V164H224V160Z" fill="#E5E7EB"/>
<path d="M244 160H248V164H244V160Z" fill="#E5E7EB"/>
<path d="M264 160H268V164H264V160Z" fill="#E5E7EB"/>
<path d="M284 160H288V164H284V160Z" fill="#E5E7EB"/>
<path d="M304 160H308V164H304V160Z" fill="#E5E7EB"/>
<path d="M-96 180H-92V184H-96V180Z" fill="#E5E7EB"/>
<path d="M-76 180H-72V184H-76V180Z" fill="#E5E7EB"/>
<path d="M-56 180H-52V184H-56V180Z" fill="#E5E7EB"/>
<path d="M-36 180H-32V184H-36V180Z" fill="#E5E7EB"/>
<path d="M-16 180H-12V184H-16V180Z" fill="#E5E7EB"/>
<path d="M4 180H8V184H4V180Z" fill="#E5E7EB"/>
<path d="M24 180H28V184H24V180Z" fill="#E5E7EB"/>
<path d="M44 180H48V184H44V180Z" fill="#E5E7EB"/>
<path d="M64 180H68V184H64V180Z" fill="#E5E7EB"/>
<path d="M84 180H88V184H84V180Z" fill="#E5E7EB"/>
<path d="M104 180H108V184H104V180Z" fill="#E5E7EB"/>
<path d="M124 180H128V184H124V180Z" fill="#E5E7EB"/>
<path d="M144 180H148V184H144V180Z" fill="#E5E7EB"/>
<path d="M164 180H168V184H164V180Z" fill="#E5E7EB"/>
<path d="M184 180H188V184H184V180Z" fill="#E5E7EB"/>
<path d="M204 180H208V184H204V180Z" fill="#E5E7EB"/>
<path d="M224 180H228V184H224V180Z" fill="#E5E7EB"/>
<path d="M244 180H248V184H244V180Z" fill="#E5E7EB"/>
<path d="M264 180H268V184H264V180Z" fill="#E5E7EB"/>
<path d="M284 180H288V184H284V180Z" fill="#E5E7EB"/>
<path d="M304 180H308V184H304V180Z" fill="#E5E7EB"/>
<path d="M-96 200H-92V204H-96V200Z" fill="#E5E7EB"/>
<path d="M-76 200H-72V204H-76V200Z" fill="#E5E7EB"/>
<path d="M-56 200H-52V204H-56V200Z" fill="#E5E7EB"/>
<path d="M-36 200H-32V204H-36V200Z" fill="#E5E7EB"/>
<path d="M-16 200H-12V204H-16V200Z" fill="#E5E7EB"/>
<path d="M4 200H8V204H4V200Z" fill="#E5E7EB"/>
<path d="M24 200H28V204H24V200Z" fill="#E5E7EB"/>
<path d="M44 200H48V204H44V200Z" fill="#E5E7EB"/>
<path d="M64 200H68V204H64V200Z" fill="#E5E7EB"/>
<path d="M84 200H88V204H84V200Z" fill="#E5E7EB"/>
<path d="M104 200H108V204H104V200Z" fill="#E5E7EB"/>
<path d="M124 200H128V204H124V200Z" fill="#E5E7EB"/>
<path d="M144 200H148V204H144V200Z" fill="#E5E7EB"/>
<path d="M164 200H168V204H164V200Z" fill="#E5E7EB"/>
<path d="M184 200H188V204H184V200Z" fill="#E5E7EB"/>
<path d="M204 200H208V204H204V200Z" fill="#E5E7EB"/>
<path d="M224 200H228V204H224V200Z" fill="#E5E7EB"/>
<path d="M244 200H248V204H244V200Z" fill="#E5E7EB"/>
<path d="M264 200H268V204H264V200Z" fill="#E5E7EB"/>
<path d="M284 200H288V204H284V200Z" fill="#E5E7EB"/>
<path d="M304 200H308V204H304V200Z" fill="#E5E7EB"/>
<path d="M-96 220H-92V224H-96V220Z" fill="#E5E7EB"/>
<path d="M-76 220H-72V224H-76V220Z" fill="#E5E7EB"/>
<path d="M-56 220H-52V224H-56V220Z" fill="#E5E7EB"/>
<path d="M-36 220H-32V224H-36V220Z" fill="#E5E7EB"/>
<path d="M-16 220H-12V224H-16V220Z" fill="#E5E7EB"/>
<path d="M4 220H8V224H4V220Z" fill="#E5E7EB"/>
<path d="M24 220H28V224H24V220Z" fill="#E5E7EB"/>
<path d="M44 220H48V224H44V220Z" fill="#E5E7EB"/>
<path d="M64 220H68V224H64V220Z" fill="#E5E7EB"/>
<path d="M84 220H88V224H84V220Z" fill="#E5E7EB"/>
<path d="M104 220H108V224H104V220Z" fill="#E5E7EB"/>
<path d="M124 220H128V224H124V220Z" fill="#E5E7EB"/>
<path d="M144 220H148V224H144V220Z" fill="#E5E7EB"/>
<path d="M164 220H168V224H164V220Z" fill="#E5E7EB"/>
<path d="M184 220H188V224H184V220Z" fill="#E5E7EB"/>
<path d="M204 220H208V224H204V220Z" fill="#E5E7EB"/>
<path d="M224 220H228V224H224V220Z" fill="#E5E7EB"/>
<path d="M244 220H248V224H244V220Z" fill="#E5E7EB"/>
<path d="M264 220H268V224H264V220Z" fill="#E5E7EB"/>
<path d="M284 220H288V224H284V220Z" fill="#E5E7EB"/>
<path d="M304 220H308V224H304V220Z" fill="#E5E7EB"/>
<path d="M-96 240H-92V244H-96V240Z" fill="#E5E7EB"/>
<path d="M-76 240H-72V244H-76V240Z" fill="#E5E7EB"/>
<path d="M-56 240H-52V244H-56V240Z" fill="#E5E7EB"/>
<path d="M-36 240H-32V244H-36V240Z" fill="#E5E7EB"/>
<path d="M-16 240H-12V244H-16V240Z" fill="#E5E7EB"/>
<path d="M4 240H8V244H4V240Z" fill="#E5E7EB"/>
<path d="M24 240H28V244H24V240Z" fill="#E5E7EB"/>
<path d="M44 240H48V244H44V240Z" fill="#E5E7EB"/>
<path d="M64 240H68V244H64V240Z" fill="#E5E7EB"/>
<path d="M84 240H88V244H84V240Z" fill="#E5E7EB"/>
<path d="M104 240H108V244H104V240Z" fill="#E5E7EB"/>
<path d="M124 240H128V244H124V240Z" fill="#E5E7EB"/>
<path d="M144 240H148V244H144V240Z" fill="#E5E7EB"/>
<path d="M164 240H168V244H164V240Z" fill="#E5E7EB"/>
<path d="M184 240H188V244H184V240Z" fill="#E5E7EB"/>
<path d="M204 240H208V244H204V240Z" fill="#E5E7EB"/>
<path d="M224 240H228V244H224V240Z" fill="#E5E7EB"/>
<path d="M244 240H248V244H244V240Z" fill="#E5E7EB"/>
<path d="M264 240H268V244H264V240Z" fill="#E5E7EB"/>
<path d="M284 240H288V244H284V240Z" fill="#E5E7EB"/>
<path d="M304 240H308V244H304V240Z" fill="#E5E7EB"/>
<path d="M-96 260H-92V264H-96V260Z" fill="#E5E7EB"/>
<path d="M-76 260H-72V264H-76V260Z" fill="#E5E7EB"/>
<path d="M-56 260H-52V264H-56V260Z" fill="#E5E7EB"/>
<path d="M-36 260H-32V264H-36V260Z" fill="#E5E7EB"/>
<path d="M-16 260H-12V264H-16V260Z" fill="#E5E7EB"/>
<path d="M4 260H8V264H4V260Z" fill="#E5E7EB"/>
<path d="M24 260H28V264H24V260Z" fill="#E5E7EB"/>
<path d="M44 260H48V264H44V260Z" fill="#E5E7EB"/>
<path d="M64 260H68V264H64V260Z" fill="#E5E7EB"/>
<path d="M84 260H88V264H84V260Z" fill="#E5E7EB"/>
<path d="M104 260H108V264H104V260Z" fill="#E5E7EB"/>
<path d="M124 260H128V264H124V260Z" fill="#E5E7EB"/>
<path d="M144 260H148V264H144V260Z" fill="#E5E7EB"/>
<path d="M164 260H168V264H164V260Z" fill="#E5E7EB"/>
<path d="M184 260H188V264H184V260Z" fill="#E5E7EB"/>
<path d="M204 260H208V264H204V260Z" fill="#E5E7EB"/>
<path d="M224 260H228V264H224V260Z" fill="#E5E7EB"/>
<path d="M244 260H248V264H244V260Z" fill="#E5E7EB"/>
<path d="M264 260H268V264H264V260Z" fill="#E5E7EB"/>
<path d="M284 260H288V264H284V260Z" fill="#E5E7EB"/>
<path d="M304 260H308V264H304V260Z" fill="#E5E7EB"/>
<path d="M-96 280H-92V284H-96V280Z" fill="#E5E7EB"/>
<path d="M-76 280H-72V284H-76V280Z" fill="#E5E7EB"/>
<path d="M-56 280H-52V284H-56V280Z" fill="#E5E7EB"/>
<path d="M-36 280H-32V284H-36V280Z" fill="#E5E7EB"/>
<path d="M-16 280H-12V284H-16V280Z" fill="#E5E7EB"/>
<path d="M4 280H8V284H4V280Z" fill="#E5E7EB"/>
<path d="M24 280H28V284H24V280Z" fill="#E5E7EB"/>
<path d="M44 280H48V284H44V280Z" fill="#E5E7EB"/>
<path d="M64 280H68V284H64V280Z" fill="#E5E7EB"/>
<path d="M84 280H88V284H84V280Z" fill="#E5E7EB"/>
<path d="M104 280H108V284H104V280Z" fill="#E5E7EB"/>
<path d="M124 280H128V284H124V280Z" fill="#E5E7EB"/>
<path d="M144 280H148V284H144V280Z" fill="#E5E7EB"/>
<path d="M164 280H168V284H164V280Z" fill="#E5E7EB"/>
<path d="M184 280H188V284H184V280Z" fill="#E5E7EB"/>
<path d="M204 280H208V284H204V280Z" fill="#E5E7EB"/>
<path d="M224 280H228V284H224V280Z" fill="#E5E7EB"/>
<path d="M244 280H248V284H244V280Z" fill="#E5E7EB"/>
<path d="M264 280H268V284H264V280Z" fill="#E5E7EB"/>
<path d="M284 280H288V284H284V280Z" fill="#E5E7EB"/>
<path d="M304 280H308V284H304V280Z" fill="#E5E7EB"/>
<path d="M-96 300H-92V304H-96V300Z" fill="#E5E7EB"/>
<path d="M-76 300H-72V304H-76V300Z" fill="#E5E7EB"/>
<path d="M-56 300H-52V304H-56V300Z" fill="#E5E7EB"/>
<path d="M-36 300H-32V304H-36V300Z" fill="#E5E7EB"/>
<path d="M-16 300H-12V304H-16V300Z" fill="#E5E7EB"/>
<path d="M4 300H8V304H4V300Z" fill="#E5E7EB"/>
<path d="M24 300H28V304H24V300Z" fill="#E5E7EB"/>
<path d="M44 300H48V304H44V300Z" fill="#E5E7EB"/>
<path d="M64 300H68V304H64V300Z" fill="#E5E7EB"/>
<path d="M84 300H88V304H84V300Z" fill="#E5E7EB"/>
<path d="M104 300H108V304H104V300Z" fill="#E5E7EB"/>
<path d="M124 300H128V304H124V300Z" fill="#E5E7EB"/>
<path d="M144 300H148V304H144V300Z" fill="#E5E7EB"/>
<path d="M164 300H168V304H164V300Z" fill="#E5E7EB"/>
<path d="M184 300H188V304H184V300Z" fill="#E5E7EB"/>
<path d="M204 300H208V304H204V300Z" fill="#E5E7EB"/>
<path d="M224 300H228V304H224V300Z" fill="#E5E7EB"/>
<path d="M244 300H248V304H244V300Z" fill="#E5E7EB"/>
<path d="M264 300H268V304H264V300Z" fill="#E5E7EB"/>
<path d="M284 300H288V304H284V300Z" fill="#E5E7EB"/>
<path d="M304 300H308V304H304V300Z" fill="#E5E7EB"/>
<path d="M-96 320H-92V324H-96V320Z" fill="#E5E7EB"/>
<path d="M-76 320H-72V324H-76V320Z" fill="#E5E7EB"/>
<path d="M-56 320H-52V324H-56V320Z" fill="#E5E7EB"/>
<path d="M-36 320H-32V324H-36V320Z" fill="#E5E7EB"/>
<path d="M-16 320H-12V324H-16V320Z" fill="#E5E7EB"/>
<path d="M4 320H8V324H4V320Z" fill="#E5E7EB"/>
<path d="M24 320H28V324H24V320Z" fill="#E5E7EB"/>
<path d="M44 320H48V324H44V320Z" fill="#E5E7EB"/>
<path d="M64 320H68V324H64V320Z" fill="#E5E7EB"/>
<path d="M84 320H88V324H84V320Z" fill="#E5E7EB"/>
<path d="M104 320H108V324H104V320Z" fill="#E5E7EB"/>
<path d="M124 320H128V324H124V320Z" fill="#E5E7EB"/>
<path d="M144 320H148V324H144V320Z" fill="#E5E7EB"/>
<path d="M164 320H168V324H164V320Z" fill="#E5E7EB"/>
<path d="M184 320H188V324H184V320Z" fill="#E5E7EB"/>
<path d="M204 320H208V324H204V320Z" fill="#E5E7EB"/>
<path d="M224 320H228V324H224V320Z" fill="#E5E7EB"/>
<path d="M244 320H248V324H244V320Z" fill="#E5E7EB"/>
<path d="M264 320H268V324H264V320Z" fill="#E5E7EB"/>
<path d="M284 320H288V324H284V320Z" fill="#E5E7EB"/>
<path d="M304 320H308V324H304V320Z" fill="#E5E7EB"/>
<path d="M-96 340H-92V344H-96V340Z" fill="#E5E7EB"/>
<path d="M-76 340H-72V344H-76V340Z" fill="#E5E7EB"/>
<path d="M-56 340H-52V344H-56V340Z" fill="#E5E7EB"/>
<path d="M-36 340H-32V344H-36V340Z" fill="#E5E7EB"/>
<path d="M-16 340H-12V344H-16V340Z" fill="#E5E7EB"/>
<path d="M4 340H8V344H4V340Z" fill="#E5E7EB"/>
<path d="M24 340H28V344H24V340Z" fill="#E5E7EB"/>
<path d="M44 340H48V344H44V340Z" fill="#E5E7EB"/>
<path d="M64 340H68V344H64V340Z" fill="#E5E7EB"/>
<path d="M84 340H88V344H84V340Z" fill="#E5E7EB"/>
<path d="M104 340H108V344H104V340Z" fill="#E5E7EB"/>
<path d="M124 340H128V344H124V340Z" fill="#E5E7EB"/>
<path d="M144 340H148V344H144V340Z" fill="#E5E7EB"/>
<path d="M164 340H168V344H164V340Z" fill="#E5E7EB"/>
<path d="M184 340H188V344H184V340Z" fill="#E5E7EB"/>
<path d="M204 340H208V344H204V340Z" fill="#E5E7EB"/>
<path d="M224 340H228V344H224V340Z" fill="#E5E7EB"/>
<path d="M244 340H248V344H244V340Z" fill="#E5E7EB"/>
<path d="M264 340H268V344H264V340Z" fill="#E5E7EB"/>
<path d="M284 340H288V344H284V340Z" fill="#E5E7EB"/>
<path d="M304 340H308V344H304V340Z" fill="#E5E7EB"/>
<path d="M-96 360H-92V364H-96V360Z" fill="#E5E7EB"/>
<path d="M-76 360H-72V364H-76V360Z" fill="#E5E7EB"/>
<path d="M-56 360H-52V364H-56V360Z" fill="#E5E7EB"/>
<path d="M-36 360H-32V364H-36V360Z" fill="#E5E7EB"/>
<path d="M-16 360H-12V364H-16V360Z" fill="#E5E7EB"/>
<path d="M4 360H8V364H4V360Z" fill="#E5E7EB"/>
<path d="M24 360H28V364H24V360Z" fill="#E5E7EB"/>
<path d="M44 360H48V364H44V360Z" fill="#E5E7EB"/>
<path d="M64 360H68V364H64V360Z" fill="#E5E7EB"/>
<path d="M84 360H88V364H84V360Z" fill="#E5E7EB"/>
<path d="M104 360H108V364H104V360Z" fill="#E5E7EB"/>
<path d="M124 360H128V364H124V360Z" fill="#E5E7EB"/>
<path d="M144 360H148V364H144V360Z" fill="#E5E7EB"/>
<path d="M164 360H168V364H164V360Z" fill="#E5E7EB"/>
<path d="M184 360H188V364H184V360Z" fill="#E5E7EB"/>
<path d="M204 360H208V364H204V360Z" fill="#E5E7EB"/>
<path d="M224 360H228V364H224V360Z" fill="#E5E7EB"/>
<path d="M244 360H248V364H244V360Z" fill="#E5E7EB"/>
<path d="M264 360H268V364H264V360Z" fill="#E5E7EB"/>
<path d="M284 360H288V364H284V360Z" fill="#E5E7EB"/>
<path d="M304 360H308V364H304V360Z" fill="#E5E7EB"/>
<path d="M-96 380H-92V384H-96V380Z" fill="#E5E7EB"/>
<path d="M-76 380H-72V384H-76V380Z" fill="#E5E7EB"/>
<path d="M-56 380H-52V384H-56V380Z" fill="#E5E7EB"/>
<path d="M-36 380H-32V384H-36V380Z" fill="#E5E7EB"/>
<path d="M-16 380H-12V384H-16V380Z" fill="#E5E7EB"/>
<path d="M4 380H8V384H4V380Z" fill="#E5E7EB"/>
<path d="M24 380H28V384H24V380Z" fill="#E5E7EB"/>
<path d="M44 380H48V384H44V380Z" fill="#E5E7EB"/>
<path d="M64 380H68V384H64V380Z" fill="#E5E7EB"/>
<path d="M84 380H88V384H84V380Z" fill="#E5E7EB"/>
<path d="M104 380H108V384H104V380Z" fill="#E5E7EB"/>
<path d="M124 380H128V384H124V380Z" fill="#E5E7EB"/>
<path d="M144 380H148V384H144V380Z" fill="#E5E7EB"/>
<path d="M164 380H168V384H164V380Z" fill="#E5E7EB"/>
<path d="M184 380H188V384H184V380Z" fill="#E5E7EB"/>
<path d="M204 380H208V384H204V380Z" fill="#E5E7EB"/>
<path d="M224 380H228V384H224V380Z" fill="#E5E7EB"/>
<path d="M244 380H248V384H244V380Z" fill="#E5E7EB"/>
<path d="M264 380H268V384H264V380Z" fill="#E5E7EB"/>
<path d="M284 380H288V384H284V380Z" fill="#E5E7EB"/>
<path d="M304 380H308V384H304V380Z" fill="#E5E7EB"/>
<path d="M-96 400H-92V404H-96V400Z" fill="#E5E7EB"/>
<path d="M-76 400H-72V404H-76V400Z" fill="#E5E7EB"/>
<path d="M-56 400H-52V404H-56V400Z" fill="#E5E7EB"/>
<path d="M-36 400H-32V404H-36V400Z" fill="#E5E7EB"/>
<path d="M-16 400H-12V404H-16V400Z" fill="#E5E7EB"/>
<path d="M4 400H8V404H4V400Z" fill="#E5E7EB"/>
<path d="M24 400H28V404H24V400Z" fill="#E5E7EB"/>
<path d="M44 400H48V404H44V400Z" fill="#E5E7EB"/>
<path d="M64 400H68V404H64V400Z" fill="#E5E7EB"/>
<path d="M84 400H88V404H84V400Z" fill="#E5E7EB"/>
<path d="M104 400H108V404H104V400Z" fill="#E5E7EB"/>
<path d="M124 400H128V404H124V400Z" fill="#E5E7EB"/>
<path d="M144 400H148V404H144V400Z" fill="#E5E7EB"/>
<path d="M164 400H168V404H164V400Z" fill="#E5E7EB"/>
<path d="M184 400H188V404H184V400Z" fill="#E5E7EB"/>
<path d="M204 400H208V404H204V400Z" fill="#E5E7EB"/>
<path d="M224 400H228V404H224V400Z" fill="#E5E7EB"/>
<path d="M244 400H248V404H244V400Z" fill="#E5E7EB"/>
<path d="M264 400H268V404H264V400Z" fill="#E5E7EB"/>
<path d="M284 400H288V404H284V400Z" fill="#E5E7EB"/>
<path d="M304 400H308V404H304V400Z" fill="#E5E7EB"/>
</svg>
