<svg width="162" height="35" viewBox="0 0 162 35" fill="none" xmlns="http://www.w3.org/2000/svg">
<path d="M4.59389 6.72538C4.59389 7.49477 4.85722 8.27954 5.38389 9.0797C5.92605 9.86447 7.29694 11.0339 9.49656 12.5881C13.7254 15.5579 16.5369 17.9584 17.931 19.7895C19.3251 21.6053 20.0222 23.5441 20.0222 25.6061C20.0222 28.5297 18.8837 30.8071 16.6066 32.4382C14.3295 34.0539 11.8356 34.8618 9.12479 34.8618C7.204 34.8618 5.22899 34.4694 3.19976 33.6846C1.18603 32.8845 0.179157 32.0458 0.179157 31.1687C0.179157 30.9533 0.202393 30.5532 0.248864 29.9685C0.295334 29.3684 0.31857 28.6221 0.31857 27.7296C0.31857 27.4218 0.287589 27.0525 0.225628 26.6217C0.179157 26.1754 0.155922 25.8831 0.155922 25.7446C0.155922 25.1752 0.496708 24.8906 1.17828 24.8906C1.9373 24.8906 2.36329 25.4599 2.45623 26.5986C2.64211 28.4759 3.30819 29.9377 4.45447 30.9841C5.60075 32.0304 7.18851 32.5536 9.21773 32.5536C11.2625 32.5536 12.9509 31.9843 14.2831 30.8456C15.6307 29.6915 16.3045 28.1912 16.3045 26.3447C16.3045 25.2368 15.8476 24.0596 14.9336 22.8132C14.0352 21.5668 11.6652 19.5895 7.82361 16.8813C6.2436 15.7733 4.99663 14.8347 4.08271 14.0653C3.18427 13.2805 2.42525 12.3573 1.80564 11.2955C1.20152 10.2338 0.899455 9.02584 0.899455 7.67173C0.899455 5.47129 1.89858 3.64785 3.89682 2.2014C5.91056 0.75496 8.22636 0.0317383 10.8442 0.0317383C12.3313 0.0317383 13.919 0.401043 15.6075 1.13965C17.3114 1.86287 18.1634 2.71689 18.1634 3.7017C18.1634 3.84019 18.1556 4.06331 18.1401 4.37107C18.1246 4.66343 18.1169 5.10198 18.1169 5.68672C18.1169 5.84059 18.1479 6.14065 18.2098 6.5869C18.2098 7.60248 17.8613 8.11028 17.1642 8.11028C16.9164 8.11028 16.6686 7.99487 16.4207 7.76405C16.1884 7.51785 16.0722 7.25626 16.0722 6.97928C16.0722 5.47129 15.5533 4.31721 14.5154 3.51705C13.4931 2.7015 12.2383 2.29373 10.7513 2.29373C9.06283 2.29373 7.61449 2.75536 6.40625 3.67862C5.19801 4.60188 4.59389 5.61747 4.59389 6.72538Z" fill="#EFF0F7"/>
<path d="M36.0779 24.9829C36.4342 24.9829 36.6743 24.9213 36.7982 24.7982C36.9221 24.6751 36.9841 24.452 36.9841 24.1289C36.9841 22.944 36.5193 21.8361 35.5899 20.8051C34.676 19.7741 33.2896 19.2587 31.4308 19.2587C30.1451 19.2587 28.8129 19.8665 27.4343 21.0821C26.0712 22.2977 25.3896 24.0212 25.3896 26.2524C25.3896 27.8835 26.1099 29.353 27.5505 30.6609C29.0066 31.9535 30.633 32.5998 32.4299 32.5998C33.7931 32.5998 35.2646 32.1766 36.8446 31.3303C37.4488 31.0072 37.8438 30.8456 38.0296 30.8456C38.3085 30.8456 38.5253 30.9225 38.6802 31.0764C38.8506 31.2303 38.9358 31.4226 38.9358 31.6534C38.9358 32.2074 38.0761 32.8922 36.3567 33.7077C34.6528 34.5079 32.8946 34.9079 31.0823 34.9079C28.4024 34.9079 26.1486 34.0001 24.3208 32.1843C22.4929 30.3686 21.579 28.2066 21.579 25.6984C21.579 23.4056 22.5781 21.4437 24.5763 19.8126C26.5901 18.1815 28.8439 17.366 31.3378 17.366C34.5753 17.366 36.9995 18.1892 38.6105 19.8357C40.2215 21.4822 41.027 23.4518 41.027 25.7446C41.027 26.237 40.9031 26.5447 40.6553 26.6678C40.4074 26.7755 39.9504 26.8294 39.2844 26.8294H28.6193C27.7519 26.8294 27.3181 26.514 27.3181 25.8831C27.3181 25.2829 27.7673 24.9829 28.6658 24.9829H36.0779Z" fill="#EFF0F7"/>
<path d="M56.3392 0.678021C58.5233 0.678021 60.537 1.38586 62.3804 2.80152C64.2237 4.2018 65.1454 6.03294 65.1454 8.29493C65.1454 9.51056 64.7271 10.5877 63.8907 11.5263C63.0542 12.4496 61.9002 13.1651 60.4286 13.6729L60.0801 13.9037L60.4286 14.0653C63.2633 14.5269 65.6798 15.7426 67.678 17.7122C69.6918 19.6818 70.6986 21.9823 70.6986 24.6136C70.6986 27.4295 69.4827 29.7531 67.0507 31.5842C64.6342 33.4153 61.1411 34.3309 56.5715 34.3309C49.3066 34.3309 45.1087 34.3001 43.9779 34.2386C42.8626 34.177 42.305 33.8616 42.305 33.2922C42.305 33.0153 42.3824 32.7767 42.5373 32.5767C42.7077 32.3767 43.1879 32.2305 43.9779 32.1382C44.7679 32.0458 45.2791 31.815 45.5115 31.4457C45.7438 31.0764 45.86 30.6379 45.86 30.1301V4.74037C45.86 4.14025 45.7515 3.66323 45.5347 3.30932C45.3178 2.94001 44.8221 2.75536 44.0476 2.75536C43.2576 2.75536 42.7619 2.65534 42.5606 2.4553C42.3592 2.25526 42.2585 1.97828 42.2585 1.62436C42.2585 1.34739 42.4057 1.12426 42.7 0.955C43.0098 0.770348 43.3815 0.678021 43.8153 0.678021H56.3392ZM49.7171 10.857C49.7171 12.0111 50.0424 12.7266 50.693 13.0036C51.359 13.2652 52.4124 13.396 53.853 13.396C55.8667 13.396 57.5397 12.8958 58.8718 11.8956C60.2195 10.8801 60.8933 9.52594 60.8933 7.8333C60.8933 6.21759 60.235 4.96349 58.9183 4.07101C57.6016 3.16313 55.9132 2.7092 53.853 2.7092C52.2575 2.7092 51.1654 2.87077 50.5768 3.19391C50.0036 3.51705 49.7171 4.13256 49.7171 5.04043V10.857ZM49.9494 29.7608C49.9494 30.6686 50.0424 31.2995 50.2282 31.6534C50.4141 31.992 50.8091 32.2151 51.4132 32.3228C52.0174 32.4151 53.1172 32.4613 54.7127 32.4613C58.1515 32.4613 60.8856 31.6996 62.9148 30.1762C64.9595 28.6375 65.9818 26.514 65.9818 23.8057C65.9818 21.2821 64.8898 19.251 62.7057 17.7122C60.5215 16.158 57.8107 15.381 54.5733 15.381C53.1327 15.381 52.0019 15.5733 51.1809 15.958C50.3599 16.3273 49.9494 16.8582 49.9494 17.5506V29.7608Z" fill="#EFF0F7"/>
<path d="M86.6846 22.19C86.6846 21.0821 86.0805 20.4435 84.8723 20.2743C84.1442 20.1665 83.6872 20.0357 83.5014 19.8819C83.3155 19.7126 83.2225 19.5049 83.2225 19.2587C83.2225 18.6893 83.664 18.4046 84.547 18.4046C84.7793 18.4046 85.244 18.4893 85.9411 18.6585C86.6536 18.8124 87.4127 18.8894 88.2181 18.8894C88.435 18.8894 88.7061 18.8586 89.0314 18.797C89.3567 18.7355 89.5581 18.7047 89.6355 18.7047C90.0537 18.7047 90.2629 19.174 90.2629 20.1127C90.2629 27.2064 90.3248 30.9841 90.4488 31.4457C90.5727 31.892 91.2 32.2536 92.3308 32.5305C92.9194 32.6844 93.2835 32.8229 93.4229 32.946C93.5623 33.0691 93.632 33.2153 93.632 33.3846C93.632 33.5846 93.5003 33.7693 93.237 33.9385C92.9892 34.1078 92.6639 34.1924 92.2611 34.1924C92.0907 34.1924 91.6725 34.1386 91.0064 34.0308C90.3403 33.9231 89.8679 33.8693 89.589 33.8693C89.2947 33.8693 88.9384 33.9231 88.5202 34.0308C88.102 34.1386 87.8232 34.1924 87.6837 34.1924C87.3429 34.1924 87.1106 34.1001 86.9867 33.9154C86.8627 33.7308 86.7775 33.2768 86.7311 32.5536C86.7001 31.8304 86.6846 30.4378 86.6846 28.3759V22.19ZM78.9937 30.0839C78.9937 30.8379 79.2803 31.4611 79.8534 31.9535C80.442 32.4459 81.1391 32.6921 81.9446 32.6921C82.4403 32.6921 83.0212 32.4998 83.6872 32.1151C84.3688 31.715 84.8645 31.515 85.1743 31.515C85.4841 31.515 85.639 31.6996 85.639 32.0689C85.639 32.4998 85.0581 33.0537 83.8964 33.7308C82.7501 34.3925 81.4489 34.7233 79.9928 34.7233C78.862 34.7233 77.8706 34.3771 77.0187 33.6846C76.1822 32.9922 75.6943 32.2228 75.5548 31.3765C75.4309 30.5301 75.369 27.3603 75.369 21.8669C75.369 21.1283 74.6099 20.5897 73.0919 20.2512C72.4258 20.1127 72.0928 19.8588 72.0928 19.4895C72.0928 19.2433 72.1935 19.0509 72.3948 18.9124C72.6117 18.7739 72.875 18.7047 73.1848 18.7047C73.2778 18.7047 73.727 18.7663 74.5325 18.8894C75.3535 19.0125 76.0428 19.074 76.6004 19.074C76.8018 19.074 77.0961 19.0202 77.4834 18.9124C77.8861 18.7893 78.134 18.7278 78.2269 18.7278C78.7381 18.7278 78.9937 19.7741 78.9937 21.8669V30.0839Z" fill="#EFF0F7"/>
<path d="M108.177 0.631858C110.501 0.631858 113.111 1.30122 116.008 2.63995C118.92 3.96329 121.274 5.94831 123.071 8.59499C124.868 11.2417 125.767 14.3269 125.767 17.8507C125.767 22.6516 124.28 26.5986 121.305 29.6915C118.331 32.7844 114.474 34.3309 109.734 34.3309L96.5597 34.2386C96.2034 34.2386 95.9013 34.1463 95.6535 33.9616C95.4056 33.7923 95.2817 33.5538 95.2817 33.2461C95.2817 32.9845 95.3669 32.7691 95.5373 32.5998C95.7077 32.4305 96.1724 32.3074 96.9314 32.2305C97.6905 32.1382 98.1707 31.9766 98.372 31.7458C98.5889 31.4996 98.6973 31.1995 98.6973 30.8456V4.60188C98.6973 3.90944 98.5811 3.40934 98.3488 3.10158C98.1319 2.79383 97.8918 2.61687 97.6285 2.57071C97.3807 2.50916 96.8927 2.47838 96.1647 2.47838C95.7154 2.47838 95.4134 2.40914 95.2585 2.27065C95.1036 2.11677 95.0261 1.88596 95.0261 1.5782C95.0261 0.947306 95.5373 0.631858 96.5597 0.631858H108.177ZM102.647 29.5761C102.647 30.4686 103.058 31.1533 103.879 31.6304C104.7 32.1074 106.21 32.3459 108.41 32.3459C110.795 32.3459 112.6 32.0381 113.824 31.4226C115.899 30.3609 117.58 28.6759 118.866 26.3678C120.167 24.0596 120.817 21.7207 120.817 19.351C120.817 17.3044 120.639 15.381 120.283 13.5806C119.942 11.7649 119.315 10.1338 118.401 8.68732C117.503 7.22548 116.139 5.84829 114.312 4.55572C112.484 3.26315 110.052 2.61687 107.016 2.61687C104.103 2.61687 102.647 3.24777 102.647 4.50956V29.5761Z" fill="#EFF0F7"/>
<path d="M143.286 8.96429C142.976 8.25646 142.744 7.90254 142.589 7.90254C142.403 7.90254 142.124 8.39495 141.753 9.37976L136.78 20.6666L132.482 30.1762C132.358 30.4686 132.296 30.7225 132.296 30.9379C132.296 31.1687 132.381 31.3765 132.551 31.5611C132.737 31.7458 133.163 31.9304 133.829 32.1151C134.495 32.2997 134.914 32.4844 135.084 32.669C135.254 32.8537 135.34 33.0614 135.34 33.2922C135.34 34.0001 134.875 34.354 133.945 34.354C133.729 34.354 133.194 34.2847 132.342 34.1463C131.506 34.0232 130.809 33.9616 130.251 33.9616C129.678 33.9616 129.089 34.0232 128.485 34.1463C127.881 34.2694 127.44 34.3309 127.161 34.3309C126.773 34.3309 126.456 34.2232 126.208 34.0078C125.96 33.8077 125.836 33.5692 125.836 33.2922C125.836 32.8922 125.914 32.6306 126.069 32.5075C126.224 32.3844 126.51 32.292 126.928 32.2305C128.137 32.0304 128.965 31.5842 129.415 30.8918C129.879 30.1839 131.057 27.6988 132.946 23.4364L138.569 10.9724C139.948 7.98718 140.831 6.00986 141.218 5.04043C141.621 4.05562 141.822 3.29393 141.822 2.75536C141.822 2.57071 141.753 2.23987 141.613 1.76285C141.489 1.27045 141.427 0.916531 141.427 0.701103C141.427 0.25486 141.667 0.0317383 142.148 0.0317383C142.938 0.0317383 143.573 0.362574 144.053 1.02424C144.533 1.68592 145.176 2.93232 145.981 4.76345L152.418 19.2125C154.757 24.4751 156.236 27.7296 156.856 28.976C157.475 30.2224 157.979 31.0302 158.366 31.3995C158.769 31.7535 159.241 32.0151 159.783 32.1843C160.341 32.3536 160.72 32.5229 160.922 32.6921C161.123 32.846 161.224 33.1153 161.224 33.5C161.224 34.0232 160.736 34.2847 159.76 34.2847C159.435 34.2847 158.838 34.2386 157.971 34.1463C157.119 34.0539 156.267 34.0078 155.415 34.0078C154.563 34.0078 153.672 34.0616 152.743 34.1693C151.829 34.2771 151.202 34.3309 150.861 34.3309C150.334 34.3309 149.916 34.2386 149.606 34.0539C149.296 33.8847 149.141 33.6462 149.141 33.3384C149.141 33.0768 149.234 32.8614 149.42 32.6921C149.606 32.5229 150.102 32.3997 150.907 32.3228C151.728 32.2459 152.255 32.0766 152.487 31.815C152.735 31.538 152.859 31.1995 152.859 30.7994C152.859 30.3686 152.418 29.1837 151.535 27.2449C150.652 25.2906 150.102 24.252 149.885 24.1289C149.668 24.0058 149.25 23.9442 148.63 23.9442H138.244C137.841 23.9442 137.477 23.8211 137.152 23.5749C136.827 23.3133 136.664 23.0133 136.664 22.6747C136.664 22.4131 136.788 22.1823 137.036 21.9823C137.299 21.7822 137.593 21.6822 137.919 21.6822H147.91C148.468 21.6822 148.746 21.5822 148.746 21.3822C148.746 21.2591 148.638 20.959 148.421 20.482L143.286 8.96429Z" fill="#EFF0F7"/>
</svg>
