<svg width="24" height="24" viewBox="0 0 24 24" fill="none" xmlns="http://www.w3.org/2000/svg">
<path d="M7.01081 16.1447L7.01082 16.1447L7.0087 16.1417C6.93165 16.0325 6.96022 15.8787 7.07037 15.8041L7.07042 15.8042L7.07856 15.7985C7.18771 15.7214 7.34156 15.75 7.41607 15.8602L7.41603 15.8602L7.42032 15.8663C8.46308 17.3591 10.1755 18.26 12.0002 18.26C13.8223 18.26 15.5354 17.3713 16.5796 15.8671C16.6604 15.7539 16.8104 15.7263 16.9259 15.8014C17.0375 15.8832 17.0637 16.033 16.9874 16.1479C15.8511 17.7808 13.9859 18.75 12.0002 18.75C10.0132 18.75 8.14693 17.7796 7.01081 16.1447ZM11.9702 22.25C6.32605 22.25 1.72021 17.6536 1.72021 12C1.72021 6.34645 6.32605 1.75 11.9702 1.75C17.6144 1.75 22.2202 6.34645 22.2202 12C22.2202 17.6539 17.6241 22.25 11.9702 22.25ZM11.9702 2.25C6.59407 2.25 2.22021 6.62386 2.22021 12C2.22021 17.3761 6.59407 21.75 11.9702 21.75C17.3464 21.75 21.7202 17.3761 21.7202 12C21.7202 6.62386 17.3464 2.25 11.9702 2.25Z" fill="#0EA5E9" stroke="white"/>
</svg>
