<svg width="22" height="22" viewBox="0 0 22 22" fill="none" xmlns="http://www.w3.org/2000/svg">
<path d="M20.9198 8.12929V8.13001C20.9198 8.13001 20.9197 8.13775 20.9159 8.15793C20.9116 8.18079 20.9054 8.20625 20.8947 8.24881L20.8798 8.30853V8.37008V14.0001C20.8798 14.1327 20.8271 14.2599 20.7334 14.3536C20.6396 14.4474 20.5124 14.5001 20.3798 14.5001C20.2472 14.5001 20.12 14.4474 20.0263 14.3536C19.9325 14.2599 19.8798 14.1327 19.8798 14.0001V11.7101V10.7732L19.1015 11.2947L18.1015 11.9647L17.8798 12.1132V12.3801V16.7419C17.8537 17.5163 17.5987 18.2656 17.147 18.8952C16.6955 19.5244 16.0678 20.0058 15.3431 20.2786L12.1663 21.3342C11.7918 21.451 11.4009 21.5071 11.0086 21.5002L11.0008 21.5L10.993 21.5001C10.6131 21.5053 10.2348 21.4525 9.87094 21.3434L6.70707 20.2888C5.9829 20.0149 5.35568 19.5332 4.90425 18.904C4.45261 18.2745 4.19712 17.5257 4.1698 16.7515V12.3701V12.0972L3.94037 11.9496L2.7926 11.211C2.28301 10.8752 1.86468 10.4181 1.57509 9.88087C1.28511 9.34286 1.1333 8.74126 1.1333 8.13008C1.1333 7.5189 1.28511 6.9173 1.57509 6.37929C1.86502 5.8414 2.28398 5.38393 2.79437 5.04795C2.79447 5.04788 2.79458 5.04781 2.79468 5.04774L8.78371 1.12493C9.46174 0.727269 10.2336 0.517578 11.0198 0.517578C11.8061 0.517578 12.5781 0.727319 13.2561 1.12507L19.2463 5.03866L19.2471 5.03915C19.7614 5.3739 20.1839 5.83197 20.4761 6.37168C20.7682 6.91139 20.9208 7.51559 20.9198 8.12929ZM16.9187 16.8032L16.92 16.7834L16.9198 16.7636L16.8798 13.6836L16.8679 12.77L16.1048 13.2725L13.2721 15.1377C12.5935 15.5504 11.812 15.7627 11.0177 15.7501L11.0101 15.75L11.0024 15.7501C10.2141 15.7618 9.43883 15.5492 8.76678 15.1373L5.89209 13.2707L5.1198 12.7693V13.6901V16.7701V16.7867L5.1209 16.8032C5.15719 17.3491 5.34609 17.8738 5.66609 18.3176C5.98609 18.7613 6.42432 19.1062 6.93082 19.313L6.94714 19.3197L6.9639 19.3252L10.1939 20.3852L10.2076 20.3896L10.2215 20.3933C10.7578 20.5357 11.3218 20.5357 11.8581 20.3933L11.8729 20.3894L11.8875 20.3846L15.0775 19.3246L15.0933 19.3193L15.1088 19.313C15.6153 19.1062 16.0535 18.7613 16.3735 18.3176C16.6935 17.8738 16.8824 17.3491 16.9187 16.8032ZM12.6665 14.3605L12.6853 14.3504L12.7033 14.3387L18.7008 10.4203C19.0646 10.1884 19.3665 9.87153 19.5806 9.49694C19.7951 9.12141 19.9149 8.69922 19.9295 8.26695L19.9298 8.25852V8.25008V8.00008V7.98748L19.9292 7.97491C19.9078 7.5514 19.7844 7.13934 19.5694 6.77385C19.3554 6.41003 19.057 6.10309 18.6994 5.87893L12.7038 1.95182L12.6932 1.94487L12.6822 1.93847C12.1714 1.63972 11.588 1.48801 10.9964 1.50004C10.3985 1.49597 9.81229 1.66604 9.30932 1.98956L9.30931 1.98955L9.30633 1.9915L3.30803 5.91039C2.93072 6.15282 2.62027 6.48608 2.40514 6.87963C2.18967 7.27381 2.07674 7.71584 2.07674 8.16508C2.07674 8.61432 2.18967 9.05634 2.40514 9.45053C2.62029 9.84413 2.93079 10.1774 3.30817 10.4199C3.30873 10.4202 3.3093 10.4206 3.30986 10.421L9.31665 14.3389L9.33443 14.3505L9.35314 14.3605C9.86245 14.6342 10.4316 14.7774 11.0098 14.7774C11.588 14.7774 12.1572 14.6342 12.6665 14.3605Z" fill="#BE185D" stroke="#262338"/>
</svg>
